<?xml version="1.0" encoding="UTF-8"?>
<svg width="1200pt" height="1200pt" version="1.1" viewBox="0 0 1200 1200" xmlns="http://www.w3.org/2000/svg">
 <path d="m400 1025c0-100.1 77-375 325-375h63.602c11.449 0 21.449-7.75 24.199-18.852 1.1484-4.5508 2.1992-9 3.1484-13.398 4.75-3.75 8.0508-9.25 9.1016-15.602 0.25-1.6484 0.5-3.25 0.75-4.8516 28.551-7.8984 50.648-32.352 54.449-63l12.5-100c2.6484-21.102-3.8516-42.449-17.852-58.449-8.1992-9.3984-18.551-16.5-30-20.852l4.6016-94.148 18.699-18.699c28.148-30 51.5-81.301 2.6992-155.85-37.449-57.297-101.15-86.297-189.35-86.297-34.75 0-114.9 0-189.55 50.102-213.05 4.4492-242 103.35-242 199.9 0 22.449 5.4492 73 9.0508 103.5-12.852 4.0508-24.5 11.551-33.602 21.852-14.199 16.098-20.848 37.598-18.199 58.949l12.5 100c4.0508 32.602 28.852 58.25 60.102 64.352 10.398 68.75 43.648 136.2 91.949 186.1l-17.398 69.648-191.5 47.898c-109.6 27.398-162.9 116.6-162.9 272.75 0 6.6484 2.6484 13 7.3008 17.699 4.6484 4.6992 11.051 7.25 17.699 7.25l376.6-0.050781c8.5 0 16.352-4.3008 21-11.398 4.6016-7.1016 5.25-16.051 1.8008-23.801-16.203-36.301-24.402-83.301-24.402-139.75zm525-325h-200c-209.8 0-275 238.25-275 325 0 116.1 33.648 175 100 175 103.7 0 154.75-97.301 169.25-130.8 17.25-6.3984 57.801-19.199 105.75-19.199s88.551 12.801 105.75 19.199c14.5 33.449 65.551 130.8 169.25 130.8 66.352 0 100-58.898 100-175 0-86.75-65.199-325-275-325zm-200 200h-25v25c0 13.801-11.199 25-25 25s-25-11.199-25-25v-25h-25c-13.801 0-25-11.199-25-25s11.199-25 25-25h25v-25c0-13.801 11.199-25 25-25s25 11.199 25 25v25h25c13.801 0 25 11.199 25 25s-11.199 25-25 25zm250-100c13.801 0 25 11.199 25 25s-11.199 25-25 25-25-11.199-25-25 11.199-25 25-25zm-50 100c-13.801 0-25-11.199-25-25s11.199-25 25-25 25 11.199 25 25-11.199 25-25 25zm50 50c-13.801 0-25-11.199-25-25s11.199-25 25-25 25 11.199 25 25-11.199 25-25 25zm50-50c-13.801 0-25-11.199-25-25s11.199-25 25-25 25 11.199 25 25-11.199 25-25 25z" fill="#333"/>
</svg>
