<?xml version="1.0" encoding="UTF-8"?>
<svg width="1200pt" height="1200pt" version="1.1" viewBox="0 0 1200 1200" xmlns="http://www.w3.org/2000/svg">
 <g fill="#808080">
  <path d="m507.81 352.71c-26.777-28.668-61.355-43.824-99.988-43.824-39.367 0-76.375 15.328-104.21 43.164-27.836 27.836-43.164 64.844-43.164 104.21s15.328 76.375 43.164 104.21c26.895 26.895 62.355 42.117 100.23 43.113 0.26172 3.7812-0.125 12.359-4.7031 30.059-4.0703 15.742-10.66 35.738-19.582 59.438-15.328 40.711-32.375 78.488-32.543 78.863-2.0234 4.4766-1.1172 9.7344 2.293 13.27 2.3086 2.3945 5.4453 3.6758 8.6445 3.6758 1.5234 0 3.0625-0.28906 4.5312-0.89062 2.3633-0.96484 58.531-24.238 110.64-76.809 30.785-31.055 53.707-65.914 68.121-103.61 18.035-47.16 22.676-98.719 13.801-153.25-6.4961-39.879-23.27-75.969-47.234-101.62z"/>
  <path d="m935.16 454.34c-6.4922-39.875-23.266-75.965-47.23-101.62-26.781-28.668-61.355-43.824-99.988-43.824-39.367 0-76.375 15.328-104.21 43.164-27.836 27.836-43.164 64.844-43.164 104.21 0 39.367 15.328 76.375 43.164 104.21 26.895 26.895 62.355 42.117 100.23 43.113 0.26172 3.7812-0.125 12.359-4.7031 30.059-4.0703 15.742-10.66 35.738-19.582 59.438-15.328 40.711-32.375 78.488-32.543 78.863-2.0234 4.4766-1.1172 9.7344 2.293 13.27 2.3086 2.3945 5.4453 3.6758 8.6445 3.6758 1.5234 0 3.0625-0.28906 4.5312-0.89062 2.3633-0.96484 58.531-24.238 110.64-76.809 30.785-31.055 53.707-65.914 68.121-103.61 18.031-47.156 22.676-98.719 13.797-153.25z"/>
 </g>
</svg>
