<svg width="311" height="101" viewBox="0 0 311 101" fill="none" xmlns="http://www.w3.org/2000/svg">
<path d="M7.30949 12.2734V14.0752H8.21477C8.59563 14.0752 8.86516 14.1484 9.02336 14.2949C9.18742 14.4414 9.26945 14.6846 9.26945 15.0244C9.26945 15.3701 9.18742 15.6191 9.02336 15.7715C8.8593 15.9238 8.58977 16 8.21477 16H5.17375C4.78703 16 4.50871 15.9238 4.33879 15.7715C4.17473 15.6191 4.0927 15.3701 4.0927 15.0244C4.0927 14.7139 4.1718 14.4795 4.33 14.3213C4.4882 14.1572 4.71965 14.0752 5.02434 14.0752H5.17375V7.51855H5.02434C4.72551 7.51855 4.49406 7.43652 4.33 7.27246C4.1718 7.10254 4.0927 6.8623 4.0927 6.55176C4.0927 6.21191 4.17766 5.96582 4.34758 5.81348C4.5175 5.65527 4.79289 5.57617 5.17375 5.57617H8.80363C10.2392 5.57617 11.3232 5.85156 12.0556 6.40234C12.7939 6.95313 13.163 7.76465 13.163 8.83691C13.163 9.96777 12.7968 10.8232 12.0644 11.4033C11.332 11.9834 10.245 12.2734 8.80363 12.2734H7.30949ZM7.30949 7.51855V10.2959H8.55754C9.24895 10.2959 9.7675 10.1787 10.1132 9.94434C10.4648 9.70996 10.6405 9.3584 10.6405 8.88965C10.6405 8.4502 10.4589 8.11328 10.0956 7.87891C9.7382 7.63867 9.22551 7.51855 8.55754 7.51855H7.30949ZM19.3066 7.3252C18.5507 7.3252 17.956 7.62988 17.5224 8.23926C17.0947 8.84863 16.8808 9.69531 16.8808 10.7793C16.8808 11.8633 17.0976 12.7129 17.5312 13.3281C17.9648 13.9434 18.5566 14.251 19.3066 14.251C20.0624 14.251 20.6572 13.9463 21.0907 13.3369C21.5243 12.7217 21.7411 11.8691 21.7411 10.7793C21.7411 9.69531 21.5243 8.84863 21.0907 8.23926C20.663 7.62988 20.0683 7.3252 19.3066 7.3252ZM19.3066 5.28613C20.748 5.28613 21.9345 5.80176 22.8661 6.83301C23.7978 7.86426 24.2636 9.17969 24.2636 10.7793C24.2636 12.3906 23.8007 13.709 22.8749 14.7344C21.9491 15.7598 20.7597 16.2725 19.3066 16.2725C17.871 16.2725 16.6845 15.7568 15.747 14.7256C14.8095 13.6885 14.3407 12.373 14.3407 10.7793C14.3407 9.17383 14.8036 7.8584 15.7294 6.83301C16.6611 5.80176 17.8534 5.28613 19.3066 5.28613ZM32.789 5.86621C32.9003 5.65527 33.0175 5.50586 33.1405 5.41797C33.2695 5.33008 33.4277 5.28613 33.6152 5.28613C33.9023 5.28613 34.1044 5.3623 34.2216 5.51465C34.3447 5.66699 34.4062 5.92773 34.4062 6.29688L34.4238 8.58203C34.4238 8.98633 34.3564 9.25879 34.2216 9.39941C34.0927 9.54004 33.8525 9.61035 33.5009 9.61035C33.2548 9.61035 33.0614 9.55176 32.9208 9.43457C32.7861 9.31152 32.6747 9.09473 32.5868 8.78418C32.4286 8.22168 32.1855 7.82031 31.8573 7.58008C31.5292 7.33984 31.0693 7.21973 30.4775 7.21973C29.5751 7.21973 28.8837 7.52441 28.4032 8.13379C27.9286 8.74316 27.6913 9.625 27.6913 10.7793C27.6913 11.9336 27.9404 12.8271 28.4384 13.46C28.9423 14.0869 29.6542 14.4004 30.5741 14.4004C30.7851 14.4004 31.0253 14.377 31.2948 14.3301C31.5644 14.2773 31.8808 14.1982 32.2441 14.0928V12.7041H31.2509C30.8525 12.7041 30.5683 12.6309 30.3984 12.4844C30.2343 12.3379 30.1523 12.0947 30.1523 11.7549C30.1523 11.4033 30.2343 11.1543 30.3984 11.0078C30.5683 10.8555 30.8525 10.7793 31.2509 10.7793H34.4238C34.8339 10.7793 35.121 10.8525 35.2851 10.999C35.455 11.1455 35.54 11.3916 35.54 11.7373C35.54 12.0479 35.455 12.2881 35.2851 12.458C35.121 12.6221 34.8808 12.7041 34.5644 12.7041H34.4238V14.7959V14.9014C34.4238 15.0889 34.4032 15.2207 34.3622 15.2969C34.3212 15.3672 34.2392 15.4404 34.1161 15.5166C33.7822 15.7158 33.2519 15.8916 32.5253 16.0439C31.7988 16.1963 31.0634 16.2725 30.3193 16.2725C28.7841 16.2725 27.5419 15.7656 26.5927 14.752C25.6435 13.7383 25.1689 12.4141 25.1689 10.7793C25.1689 9.20312 25.6493 7.89355 26.6103 6.85059C27.5712 5.80762 28.79 5.28613 30.2665 5.28613C30.6767 5.28613 31.0839 5.33301 31.4882 5.42676C31.8984 5.52051 32.332 5.66699 32.789 5.86621ZM54.4101 5.86621C54.5214 5.65527 54.6386 5.50586 54.7616 5.41797C54.8905 5.33008 55.0488 5.28613 55.2363 5.28613C55.5234 5.28613 55.7255 5.3623 55.8427 5.51465C55.9657 5.66699 56.0273 5.92773 56.0273 6.29688L56.0448 8.58203C56.0448 8.98633 55.9775 9.25879 55.8427 9.39941C55.7138 9.54004 55.4736 9.61035 55.122 9.61035C54.8759 9.61035 54.6825 9.55176 54.5419 9.43457C54.4072 9.31152 54.2958 9.09473 54.2079 8.78418C54.0497 8.22168 53.8066 7.82031 53.4784 7.58008C53.1503 7.33984 52.6904 7.21973 52.0986 7.21973C51.1962 7.21973 50.5048 7.52441 50.0243 8.13379C49.5497 8.74316 49.3124 9.625 49.3124 10.7793C49.3124 11.9336 49.5614 12.8271 50.0595 13.46C50.5634 14.0869 51.2753 14.4004 52.1952 14.4004C52.4062 14.4004 52.6464 14.377 52.9159 14.3301C53.1855 14.2773 53.5019 14.1982 53.8652 14.0928V12.7041H52.872C52.4736 12.7041 52.1894 12.6309 52.0195 12.4844C51.8554 12.3379 51.7734 12.0947 51.7734 11.7549C51.7734 11.4033 51.8554 11.1543 52.0195 11.0078C52.1894 10.8555 52.4736 10.7793 52.872 10.7793H56.0448C56.455 10.7793 56.7421 10.8525 56.9062 10.999C57.0761 11.1455 57.1611 11.3916 57.1611 11.7373C57.1611 12.0479 57.0761 12.2881 56.9062 12.458C56.7421 12.6221 56.5019 12.7041 56.1855 12.7041H56.0448V14.7959V14.9014C56.0448 15.0889 56.0243 15.2207 55.9833 15.2969C55.9423 15.3672 55.8603 15.4404 55.7372 15.5166C55.4032 15.7158 54.873 15.8916 54.1464 16.0439C53.4198 16.1963 52.6845 16.2725 51.9404 16.2725C50.4052 16.2725 49.163 15.7656 48.2138 14.752C47.2646 13.7383 46.79 12.4141 46.79 10.7793C46.79 9.20312 47.2704 7.89355 48.2314 6.85059C49.1923 5.80762 50.4111 5.28613 51.8876 5.28613C52.2978 5.28613 52.705 5.33301 53.1093 5.42676C53.5195 5.52051 53.953 5.66699 54.4101 5.86621ZM62.5488 7.3252C61.7929 7.3252 61.1982 7.62988 60.7646 8.23926C60.3368 8.84863 60.123 9.69531 60.123 10.7793C60.123 11.8633 60.3398 12.7129 60.7734 13.3281C61.207 13.9434 61.7988 14.251 62.5488 14.251C63.3046 14.251 63.8993 13.9463 64.3329 13.3369C64.7665 12.7217 64.9833 11.8691 64.9833 10.7793C64.9833 9.69531 64.7665 8.84863 64.3329 8.23926C63.9052 7.62988 63.3105 7.3252 62.5488 7.3252ZM62.5488 5.28613C63.9902 5.28613 65.1767 5.80176 66.1083 6.83301C67.04 7.86426 67.5058 9.17969 67.5058 10.7793C67.5058 12.3906 67.0429 13.709 66.1171 14.7344C65.1913 15.7598 64.0019 16.2725 62.5488 16.2725C61.1132 16.2725 59.9267 15.7568 58.9892 14.7256C58.0517 13.6885 57.5829 12.373 57.5829 10.7793C57.5829 9.17383 58.0458 7.8584 58.9716 6.83301C59.9032 5.80176 61.0956 5.28613 62.5488 5.28613ZM82.7372 7.51855V9.54004H85.6113V7.51855H85.4706C85.1542 7.51855 84.9111 7.43652 84.7411 7.27246C84.5771 7.1084 84.495 6.86816 84.495 6.55176C84.495 6.20605 84.58 5.95703 84.7499 5.80469C84.9257 5.65234 85.2128 5.57617 85.6113 5.57617H87.8788C88.2773 5.57617 88.5585 5.65234 88.7226 5.80469C88.8925 5.95703 88.9775 6.20605 88.9775 6.55176C88.9775 6.86816 88.8954 7.1084 88.7314 7.27246C88.5732 7.43652 88.3388 7.51855 88.0282 7.51855H87.8788V14.0752H88.0282C88.3447 14.0752 88.5849 14.1572 88.7489 14.3213C88.913 14.4795 88.995 14.7139 88.995 15.0244C88.995 15.3701 88.9101 15.6191 88.7402 15.7715C88.5702 15.9238 88.2831 16 87.8788 16H85.6113C85.207 16 84.9198 15.9268 84.7499 15.7803C84.58 15.6279 84.495 15.376 84.495 15.0244C84.495 14.7139 84.5771 14.4795 84.7411 14.3213C84.9111 14.1572 85.1542 14.0752 85.4706 14.0752H85.6113V11.4824H82.7372V14.0752H82.8779C83.1943 14.0752 83.4345 14.1572 83.5986 14.3213C83.7685 14.4795 83.8534 14.7139 83.8534 15.0244C83.8534 15.3701 83.7655 15.6191 83.5898 15.7715C83.4198 15.9238 83.1357 16 82.7372 16H80.4697C80.0654 16 79.7782 15.9268 79.6083 15.7803C79.4384 15.6279 79.3534 15.376 79.3534 15.0244C79.3534 14.7139 79.4355 14.4795 79.5995 14.3213C79.7636 14.1572 80.0038 14.0752 80.3202 14.0752H80.4697V7.51855H80.3202C80.0097 7.51855 79.7724 7.43652 79.6083 7.27246C79.4501 7.1084 79.371 6.86816 79.371 6.55176C79.371 6.20605 79.453 5.95703 79.6171 5.80469C79.787 5.65234 80.0712 5.57617 80.4697 5.57617H82.7372C83.1298 5.57617 83.414 5.65234 83.5898 5.80469C83.7655 5.95703 83.8534 6.20605 83.8534 6.55176C83.8534 6.86816 83.7685 7.1084 83.5986 7.27246C83.4345 7.43652 83.1943 7.51855 82.8779 7.51855H82.7372ZM96.1142 7.51855V14.0752H97.5907C97.9892 14.0752 98.2734 14.1514 98.4433 14.3037C98.6191 14.4502 98.707 14.6904 98.707 15.0244C98.707 15.3643 98.6191 15.6133 98.4433 15.7715C98.2675 15.9238 97.9833 16 97.5907 16H92.37C91.9716 16 91.6845 15.9238 91.5087 15.7715C91.3388 15.6191 91.2538 15.3701 91.2538 15.0244C91.2538 14.6846 91.3388 14.4414 91.5087 14.2949C91.6786 14.1484 91.9657 14.0752 92.37 14.0752H93.8466V7.51855H92.37C91.9716 7.51855 91.6845 7.44238 91.5087 7.29004C91.3388 7.1377 91.2538 6.8916 91.2538 6.55176C91.2538 6.20605 91.3388 5.95996 91.5087 5.81348C91.6786 5.66699 91.9657 5.59375 92.37 5.59375H97.5907C98.0068 5.59375 98.2968 5.66699 98.4609 5.81348C98.6249 5.95996 98.707 6.20605 98.707 6.55176C98.707 6.8916 98.622 7.1377 98.4521 7.29004C98.2822 7.44238 97.995 7.51855 97.5907 7.51855H96.1142ZM108.463 5.86621C108.574 5.65527 108.691 5.50586 108.814 5.41797C108.943 5.33008 109.101 5.28613 109.289 5.28613C109.576 5.28613 109.778 5.3623 109.895 5.51465C110.018 5.66699 110.08 5.92773 110.08 6.29688L110.098 8.58203C110.098 8.98633 110.03 9.25879 109.895 9.39941C109.767 9.54004 109.526 9.61035 109.175 9.61035C108.929 9.61035 108.735 9.55176 108.595 9.43457C108.46 9.31152 108.349 9.09473 108.261 8.78418C108.102 8.22168 107.859 7.82031 107.531 7.58008C107.203 7.33984 106.743 7.21973 106.151 7.21973C105.249 7.21973 104.558 7.52441 104.077 8.13379C103.602 8.74316 103.365 9.625 103.365 10.7793C103.365 11.9336 103.614 12.8271 104.112 13.46C104.616 14.0869 105.328 14.4004 106.248 14.4004C106.459 14.4004 106.699 14.377 106.969 14.3301C107.238 14.2773 107.555 14.1982 107.918 14.0928V12.7041H106.925C106.526 12.7041 106.242 12.6309 106.072 12.4844C105.908 12.3379 105.826 12.0947 105.826 11.7549C105.826 11.4033 105.908 11.1543 106.072 11.0078C106.242 10.8555 106.526 10.7793 106.925 10.7793H110.098C110.508 10.7793 110.795 10.8525 110.959 10.999C111.129 11.1455 111.214 11.3916 111.214 11.7373C111.214 12.0479 111.129 12.2881 110.959 12.458C110.795 12.6221 110.555 12.7041 110.238 12.7041H110.098V14.7959V14.9014C110.098 15.0889 110.077 15.2207 110.036 15.2969C109.995 15.3672 109.913 15.4404 109.79 15.5166C109.456 15.7158 108.926 15.8916 108.199 16.0439C107.473 16.1963 106.737 16.2725 105.993 16.2725C104.458 16.2725 103.216 15.7656 102.267 14.752C101.317 13.7383 100.843 12.4141 100.843 10.7793C100.843 9.20312 101.323 7.89355 102.284 6.85059C103.245 5.80762 104.464 5.28613 105.94 5.28613C106.351 5.28613 106.758 5.33301 107.162 5.42676C107.572 5.52051 108.006 5.66699 108.463 5.86621ZM115.169 7.51855V9.54004H118.043V7.51855H117.902C117.586 7.51855 117.343 7.43652 117.173 7.27246C117.009 7.1084 116.927 6.86816 116.927 6.55176C116.927 6.20605 117.012 5.95703 117.182 5.80469C117.357 5.65234 117.644 5.57617 118.043 5.57617H120.31C120.709 5.57617 120.99 5.65234 121.154 5.80469C121.324 5.95703 121.409 6.20605 121.409 6.55176C121.409 6.86816 121.327 7.1084 121.163 7.27246C121.005 7.43652 120.77 7.51855 120.46 7.51855H120.31V14.0752H120.46C120.776 14.0752 121.017 14.1572 121.181 14.3213C121.345 14.4795 121.427 14.7139 121.427 15.0244C121.427 15.3701 121.342 15.6191 121.172 15.7715C121.002 15.9238 120.715 16 120.31 16H118.043C117.639 16 117.351 15.9268 117.182 15.7803C117.012 15.6279 116.927 15.376 116.927 15.0244C116.927 14.7139 117.009 14.4795 117.173 14.3213C117.343 14.1572 117.586 14.0752 117.902 14.0752H118.043V11.4824H115.169V14.0752H115.309C115.626 14.0752 115.866 14.1572 116.03 14.3213C116.2 14.4795 116.285 14.7139 116.285 15.0244C116.285 15.3701 116.197 15.6191 116.021 15.7715C115.851 15.9238 115.567 16 115.169 16H112.901C112.497 16 112.21 15.9268 112.04 15.7803C111.87 15.6279 111.785 15.376 111.785 15.0244C111.785 14.7139 111.867 14.4795 112.031 14.3213C112.195 14.1572 112.435 14.0752 112.752 14.0752H112.901V7.51855H112.752C112.441 7.51855 112.204 7.43652 112.04 7.27246C111.882 7.1084 111.803 6.86816 111.803 6.55176C111.803 6.20605 111.885 5.95703 112.049 5.80469C112.219 5.65234 112.503 5.57617 112.901 5.57617H115.169C115.561 5.57617 115.846 5.65234 116.021 5.80469C116.197 5.95703 116.285 6.20605 116.285 6.55176C116.285 6.86816 116.2 7.1084 116.03 7.27246C115.866 7.43652 115.626 7.51855 115.309 7.51855H115.169ZM129.934 7.43066H125.848V9.68066H127.394V9.5752C127.394 9.24121 127.468 8.99219 127.614 8.82812C127.761 8.66406 127.983 8.58203 128.282 8.58203C128.546 8.58203 128.76 8.6582 128.924 8.81055C129.094 8.95703 129.179 9.14453 129.179 9.37305C129.179 9.38477 129.182 9.42285 129.187 9.4873C129.193 9.55176 129.196 9.61621 129.196 9.68066V11.5C129.196 11.8926 129.126 12.1738 128.985 12.3438C128.845 12.5137 128.616 12.5986 128.3 12.5986C128.001 12.5986 127.775 12.5195 127.623 12.3613C127.471 12.2031 127.394 11.9688 127.394 11.6582V11.5H125.848V14.1279H129.934V13.082C129.934 12.6895 130.008 12.4082 130.154 12.2383C130.307 12.0684 130.553 11.9834 130.893 11.9834C131.226 11.9834 131.464 12.0684 131.604 12.2383C131.751 12.4023 131.824 12.6836 131.824 13.082V15.209C131.824 15.5254 131.763 15.7363 131.64 15.8418C131.517 15.9473 131.273 16 130.91 16H123.712C123.325 16 123.047 15.9238 122.877 15.7715C122.713 15.6191 122.631 15.3701 122.631 15.0244C122.631 14.7139 122.71 14.4795 122.868 14.3213C123.026 14.1572 123.258 14.0752 123.562 14.0752H123.712V7.51855H123.562C123.264 7.51855 123.032 7.43652 122.868 7.27246C122.71 7.10254 122.631 6.8623 122.631 6.55176C122.631 6.21191 122.716 5.96582 122.886 5.81348C123.056 5.65527 123.331 5.57617 123.712 5.57617H130.91C131.268 5.57617 131.508 5.63184 131.631 5.74316C131.76 5.84863 131.824 6.0625 131.824 6.38477V8.35352C131.824 8.75195 131.751 9.03906 131.604 9.21484C131.458 9.38477 131.221 9.46973 130.893 9.46973C130.553 9.46973 130.307 9.38184 130.154 9.20605C130.008 9.03027 129.934 8.74609 129.934 8.35352V7.43066ZM140.42 11.21C140.572 11.3037 140.722 11.4736 140.868 11.7197C140.892 11.7549 140.912 11.7842 140.93 11.8076L142.362 14.0752H142.459H142.635C142.975 14.0752 143.229 14.1543 143.399 14.3125C143.575 14.4707 143.663 14.708 143.663 15.0244C143.663 15.3701 143.575 15.6191 143.399 15.7715C143.229 15.9238 142.945 16 142.547 16H141.466C141.067 16 140.757 15.8271 140.534 15.4814L140.508 15.4639L138.354 12.1504C138.272 12.0215 138.179 11.9248 138.073 11.8604C137.968 11.79 137.856 11.7549 137.739 11.7549H136.913V14.0752H137.054C137.37 14.0752 137.607 14.1572 137.766 14.3213C137.93 14.4795 138.012 14.7139 138.012 15.0244C138.012 15.3701 137.927 15.6191 137.757 15.7715C137.593 15.9238 137.311 16 136.913 16H134.645C134.253 16 133.972 15.9238 133.802 15.7715C133.632 15.6191 133.547 15.3701 133.547 15.0244C133.547 14.7139 133.626 14.4795 133.784 14.3213C133.948 14.1572 134.185 14.0752 134.496 14.0752H134.645V7.51855H134.496C134.191 7.51855 133.957 7.43652 133.793 7.27246C133.629 7.10254 133.547 6.8623 133.547 6.55176C133.547 6.21191 133.632 5.96582 133.802 5.81348C133.977 5.65527 134.259 5.57617 134.645 5.57617H138.697C139.939 5.57617 140.88 5.81934 141.518 6.30566C142.157 6.78613 142.476 7.49805 142.476 8.44141C142.476 9.09766 142.298 9.66602 141.94 10.1465C141.589 10.627 141.082 10.9814 140.42 11.21ZM136.808 7.46582V9.95312H137.994C138.726 9.95312 139.239 9.85938 139.532 9.67188C139.825 9.47852 139.972 9.15918 139.972 8.71387C139.972 8.27441 139.837 7.95801 139.567 7.76465C139.304 7.56543 138.876 7.46582 138.284 7.46582H136.808ZM158.657 12.2734V14.0752H159.562C159.943 14.0752 160.213 14.1484 160.371 14.2949C160.535 14.4414 160.617 14.6846 160.617 15.0244C160.617 15.3701 160.535 15.6191 160.371 15.7715C160.207 15.9238 159.937 16 159.562 16H156.521C156.135 16 155.856 15.9238 155.686 15.7715C155.522 15.6191 155.44 15.3701 155.44 15.0244C155.44 14.7139 155.519 14.4795 155.678 14.3213C155.836 14.1572 156.067 14.0752 156.372 14.0752H156.521V7.51855H156.372C156.073 7.51855 155.842 7.43652 155.678 7.27246C155.519 7.10254 155.44 6.8623 155.44 6.55176C155.44 6.21191 155.525 5.96582 155.695 5.81348C155.865 5.65527 156.141 5.57617 156.521 5.57617H160.151C161.587 5.57617 162.671 5.85156 163.403 6.40234C164.142 6.95313 164.511 7.76465 164.511 8.83691C164.511 9.96777 164.144 10.8232 163.412 11.4033C162.68 11.9834 161.593 12.2734 160.151 12.2734H158.657ZM158.657 7.51855V10.2959H159.905C160.597 10.2959 161.115 10.1787 161.461 9.94434C161.812 9.70996 161.988 9.3584 161.988 8.88965C161.988 8.4502 161.807 8.11328 161.443 7.87891C161.086 7.63867 160.573 7.51855 159.905 7.51855H158.657ZM170.654 7.3252C169.898 7.3252 169.304 7.62988 168.87 8.23926C168.442 8.84863 168.228 9.69531 168.228 10.7793C168.228 11.8633 168.445 12.7129 168.879 13.3281C169.312 13.9434 169.904 14.251 170.654 14.251C171.41 14.251 172.005 13.9463 172.438 13.3369C172.872 12.7217 173.089 11.8691 173.089 10.7793C173.089 9.69531 172.872 8.84863 172.438 8.23926C172.011 7.62988 171.416 7.3252 170.654 7.3252ZM170.654 5.28613C172.096 5.28613 173.282 5.80176 174.214 6.83301C175.145 7.86426 175.611 9.17969 175.611 10.7793C175.611 12.3906 175.148 13.709 174.223 14.7344C173.297 15.7598 172.107 16.2725 170.654 16.2725C169.219 16.2725 168.032 15.7568 167.095 14.7256C166.157 13.6885 165.688 12.373 165.688 10.7793C165.688 9.17383 166.151 7.8584 167.077 6.83301C168.009 5.80176 169.201 5.28613 170.654 5.28613ZM184.137 5.86621C184.248 5.65527 184.365 5.50586 184.488 5.41797C184.617 5.33008 184.775 5.28613 184.963 5.28613C185.25 5.28613 185.452 5.3623 185.569 5.51465C185.692 5.66699 185.754 5.92773 185.754 6.29688L185.771 8.58203C185.771 8.98633 185.704 9.25879 185.569 9.39941C185.44 9.54004 185.2 9.61035 184.849 9.61035C184.602 9.61035 184.409 9.55176 184.268 9.43457C184.134 9.31152 184.022 9.09473 183.934 8.78418C183.776 8.22168 183.533 7.82031 183.205 7.58008C182.877 7.33984 182.417 7.21973 181.825 7.21973C180.923 7.21973 180.231 7.52441 179.751 8.13379C179.276 8.74316 179.039 9.625 179.039 10.7793C179.039 11.9336 179.288 12.8271 179.786 13.46C180.29 14.0869 181.002 14.4004 181.922 14.4004C182.133 14.4004 182.373 14.377 182.643 14.3301C182.912 14.2773 183.228 14.1982 183.592 14.0928V12.7041H182.599C182.2 12.7041 181.916 12.6309 181.746 12.4844C181.582 12.3379 181.5 12.0947 181.5 11.7549C181.5 11.4033 181.582 11.1543 181.746 11.0078C181.916 10.8555 182.2 10.7793 182.599 10.7793H185.771C186.182 10.7793 186.469 10.8525 186.633 10.999C186.803 11.1455 186.888 11.3916 186.888 11.7373C186.888 12.0479 186.803 12.2881 186.633 12.458C186.469 12.6221 186.228 12.7041 185.912 12.7041H185.771V14.7959V14.9014C185.771 15.0889 185.751 15.2207 185.71 15.2969C185.669 15.3672 185.587 15.4404 185.464 15.5166C185.13 15.7158 184.6 15.8916 183.873 16.0439C183.146 16.1963 182.411 16.2725 181.667 16.2725C180.132 16.2725 178.89 15.7656 177.94 14.752C176.991 13.7383 176.517 12.4141 176.517 10.7793C176.517 9.20312 176.997 7.89355 177.958 6.85059C178.919 5.80762 180.138 5.28613 181.614 5.28613C182.024 5.28613 182.432 5.33301 182.836 5.42676C183.246 5.52051 183.68 5.66699 184.137 5.86621ZM205.758 5.86621C205.869 5.65527 205.986 5.50586 206.109 5.41797C206.238 5.33008 206.396 5.28613 206.584 5.28613C206.871 5.28613 207.073 5.3623 207.19 5.51465C207.313 5.66699 207.375 5.92773 207.375 6.29688L207.393 8.58203C207.393 8.98633 207.325 9.25879 207.19 9.39941C207.061 9.54004 206.821 9.61035 206.47 9.61035C206.224 9.61035 206.03 9.55176 205.89 9.43457C205.755 9.31152 205.643 9.09473 205.556 8.78418C205.397 8.22168 205.154 7.82031 204.826 7.58008C204.498 7.33984 204.038 7.21973 203.446 7.21973C202.544 7.21973 201.852 7.52441 201.372 8.13379C200.897 8.74316 200.66 9.625 200.66 10.7793C200.66 11.9336 200.909 12.8271 201.407 13.46C201.911 14.0869 202.623 14.4004 203.543 14.4004C203.754 14.4004 203.994 14.377 204.264 14.3301C204.533 14.2773 204.85 14.1982 205.213 14.0928V12.7041H204.22C203.821 12.7041 203.537 12.6309 203.367 12.4844C203.203 12.3379 203.121 12.0947 203.121 11.7549C203.121 11.4033 203.203 11.1543 203.367 11.0078C203.537 10.8555 203.821 10.7793 204.22 10.7793H207.393C207.803 10.7793 208.09 10.8525 208.254 10.999C208.424 11.1455 208.509 11.3916 208.509 11.7373C208.509 12.0479 208.424 12.2881 208.254 12.458C208.09 12.6221 207.85 12.7041 207.533 12.7041H207.393V14.7959V14.9014C207.393 15.0889 207.372 15.2207 207.331 15.2969C207.29 15.3672 207.208 15.4404 207.085 15.5166C206.751 15.7158 206.221 15.8916 205.494 16.0439C204.768 16.1963 204.032 16.2725 203.288 16.2725C201.753 16.2725 200.511 15.7656 199.561 14.752C198.612 13.7383 198.138 12.4141 198.138 10.7793C198.138 9.20312 198.618 7.89355 199.579 6.85059C200.54 5.80762 201.759 5.28613 203.235 5.28613C203.645 5.28613 204.053 5.33301 204.457 5.42676C204.867 5.52051 205.301 5.66699 205.758 5.86621ZM213.896 7.3252C213.141 7.3252 212.546 7.62988 212.112 8.23926C211.684 8.84863 211.471 9.69531 211.471 10.7793C211.471 11.8633 211.687 12.7129 212.121 13.3281C212.555 13.9434 213.146 14.251 213.896 14.251C214.652 14.251 215.247 13.9463 215.681 13.3369C216.114 12.7217 216.331 11.8691 216.331 10.7793C216.331 9.69531 216.114 8.84863 215.681 8.23926C215.253 7.62988 214.658 7.3252 213.896 7.3252ZM213.896 5.28613C215.338 5.28613 216.524 5.80176 217.456 6.83301C218.388 7.86426 218.853 9.17969 218.853 10.7793C218.853 12.3906 218.391 13.709 217.465 14.7344C216.539 15.7598 215.35 16.2725 213.896 16.2725C212.461 16.2725 211.274 15.7568 210.337 14.7256C209.399 13.6885 208.931 12.373 208.931 10.7793C208.931 9.17383 209.393 7.8584 210.319 6.83301C211.251 5.80176 212.443 5.28613 213.896 5.28613ZM234.085 7.51855V9.54004H236.959V7.51855H236.818C236.502 7.51855 236.259 7.43652 236.089 7.27246C235.925 7.1084 235.843 6.86816 235.843 6.55176C235.843 6.20605 235.928 5.95703 236.098 5.80469C236.273 5.65234 236.56 5.57617 236.959 5.57617H239.226C239.625 5.57617 239.906 5.65234 240.07 5.80469C240.24 5.95703 240.325 6.20605 240.325 6.55176C240.325 6.86816 240.243 7.1084 240.079 7.27246C239.921 7.43652 239.686 7.51855 239.376 7.51855H239.226V14.0752H239.376C239.692 14.0752 239.933 14.1572 240.097 14.3213C240.261 14.4795 240.343 14.7139 240.343 15.0244C240.343 15.3701 240.258 15.6191 240.088 15.7715C239.918 15.9238 239.631 16 239.226 16H236.959C236.555 16 236.268 15.9268 236.098 15.7803C235.928 15.6279 235.843 15.376 235.843 15.0244C235.843 14.7139 235.925 14.4795 236.089 14.3213C236.259 14.1572 236.502 14.0752 236.818 14.0752H236.959V11.4824H234.085V14.0752H234.226C234.542 14.0752 234.782 14.1572 234.946 14.3213C235.116 14.4795 235.201 14.7139 235.201 15.0244C235.201 15.3701 235.113 15.6191 234.937 15.7715C234.768 15.9238 234.483 16 234.085 16H231.817C231.413 16 231.126 15.9268 230.956 15.7803C230.786 15.6279 230.701 15.376 230.701 15.0244C230.701 14.7139 230.783 14.4795 230.947 14.3213C231.111 14.1572 231.351 14.0752 231.668 14.0752H231.817V7.51855H231.668C231.357 7.51855 231.12 7.43652 230.956 7.27246C230.798 7.1084 230.719 6.86816 230.719 6.55176C230.719 6.20605 230.801 5.95703 230.965 5.80469C231.135 5.65234 231.419 5.57617 231.817 5.57617H234.085C234.477 5.57617 234.762 5.65234 234.937 5.80469C235.113 5.95703 235.201 6.20605 235.201 6.55176C235.201 6.86816 235.116 7.1084 234.946 7.27246C234.782 7.43652 234.542 7.51855 234.226 7.51855H234.085ZM247.462 7.51855V14.0752H248.938C249.337 14.0752 249.621 14.1514 249.791 14.3037C249.967 14.4502 250.055 14.6904 250.055 15.0244C250.055 15.3643 249.967 15.6133 249.791 15.7715C249.615 15.9238 249.331 16 248.938 16H243.718C243.319 16 243.032 15.9238 242.856 15.7715C242.686 15.6191 242.601 15.3701 242.601 15.0244C242.601 14.6846 242.686 14.4414 242.856 14.2949C243.026 14.1484 243.313 14.0752 243.718 14.0752H245.194V7.51855H243.718C243.319 7.51855 243.032 7.44238 242.856 7.29004C242.686 7.1377 242.601 6.8916 242.601 6.55176C242.601 6.20605 242.686 5.95996 242.856 5.81348C243.026 5.66699 243.313 5.59375 243.718 5.59375H248.938C249.354 5.59375 249.644 5.66699 249.809 5.81348C249.973 5.95996 250.055 6.20605 250.055 6.55176C250.055 6.8916 249.97 7.1377 249.8 7.29004C249.63 7.44238 249.343 7.51855 248.938 7.51855H247.462ZM259.81 5.86621C259.922 5.65527 260.039 5.50586 260.162 5.41797C260.291 5.33008 260.449 5.28613 260.637 5.28613C260.924 5.28613 261.126 5.3623 261.243 5.51465C261.366 5.66699 261.428 5.92773 261.428 6.29688L261.445 8.58203C261.445 8.98633 261.378 9.25879 261.243 9.39941C261.114 9.54004 260.874 9.61035 260.522 9.61035C260.276 9.61035 260.083 9.55176 259.942 9.43457C259.808 9.31152 259.696 9.09473 259.608 8.78418C259.45 8.22168 259.207 7.82031 258.879 7.58008C258.551 7.33984 258.091 7.21973 257.499 7.21973C256.597 7.21973 255.905 7.52441 255.425 8.13379C254.95 8.74316 254.713 9.625 254.713 10.7793C254.713 11.9336 254.962 12.8271 255.46 13.46C255.964 14.0869 256.676 14.4004 257.596 14.4004C257.807 14.4004 258.047 14.377 258.316 14.3301C258.586 14.2773 258.902 14.1982 259.266 14.0928V12.7041H258.272C257.874 12.7041 257.59 12.6309 257.42 12.4844C257.256 12.3379 257.174 12.0947 257.174 11.7549C257.174 11.4033 257.256 11.1543 257.42 11.0078C257.59 10.8555 257.874 10.7793 258.272 10.7793H261.445C261.855 10.7793 262.143 10.8525 262.307 10.999C262.476 11.1455 262.561 11.3916 262.561 11.7373C262.561 12.0479 262.476 12.2881 262.307 12.458C262.143 12.6221 261.902 12.7041 261.586 12.7041H261.445V14.7959V14.9014C261.445 15.0889 261.425 15.2207 261.384 15.2969C261.343 15.3672 261.261 15.4404 261.138 15.5166C260.804 15.7158 260.273 15.8916 259.547 16.0439C258.82 16.1963 258.085 16.2725 257.341 16.2725C255.806 16.2725 254.563 15.7656 253.614 14.752C252.665 13.7383 252.19 12.4141 252.19 10.7793C252.19 9.20312 252.671 7.89355 253.632 6.85059C254.593 5.80762 255.811 5.28613 257.288 5.28613C257.698 5.28613 258.105 5.33301 258.51 5.42676C258.92 5.52051 259.353 5.66699 259.81 5.86621ZM266.517 7.51855V9.54004H269.391V7.51855H269.25C268.934 7.51855 268.69 7.43652 268.52 7.27246C268.356 7.1084 268.274 6.86816 268.274 6.55176C268.274 6.20605 268.359 5.95703 268.529 5.80469C268.705 5.65234 268.992 5.57617 269.391 5.57617H271.658C272.057 5.57617 272.338 5.65234 272.502 5.80469C272.672 5.95703 272.757 6.20605 272.757 6.55176C272.757 6.86816 272.675 7.1084 272.511 7.27246C272.352 7.43652 272.118 7.51855 271.808 7.51855H271.658V14.0752H271.808C272.124 14.0752 272.364 14.1572 272.528 14.3213C272.692 14.4795 272.774 14.7139 272.774 15.0244C272.774 15.3701 272.689 15.6191 272.519 15.7715C272.35 15.9238 272.062 16 271.658 16H269.391C268.986 16 268.699 15.9268 268.529 15.7803C268.359 15.6279 268.274 15.376 268.274 15.0244C268.274 14.7139 268.356 14.4795 268.52 14.3213C268.69 14.1572 268.934 14.0752 269.25 14.0752H269.391V11.4824H266.517V14.0752H266.657C266.974 14.0752 267.214 14.1572 267.378 14.3213C267.548 14.4795 267.633 14.7139 267.633 15.0244C267.633 15.3701 267.545 15.6191 267.369 15.7715C267.199 15.9238 266.915 16 266.517 16H264.249C263.845 16 263.558 15.9268 263.388 15.7803C263.218 15.6279 263.133 15.376 263.133 15.0244C263.133 14.7139 263.215 14.4795 263.379 14.3213C263.543 14.1572 263.783 14.0752 264.1 14.0752H264.249V7.51855H264.1C263.789 7.51855 263.552 7.43652 263.388 7.27246C263.229 7.1084 263.15 6.86816 263.15 6.55176C263.15 6.20605 263.232 5.95703 263.396 5.80469C263.566 5.65234 263.851 5.57617 264.249 5.57617H266.517C266.909 5.57617 267.193 5.65234 267.369 5.80469C267.545 5.95703 267.633 6.20605 267.633 6.55176C267.633 6.86816 267.548 7.1084 267.378 7.27246C267.214 7.43652 266.974 7.51855 266.657 7.51855H266.517ZM281.282 7.43066H277.195V9.68066H278.742V9.5752C278.742 9.24121 278.815 8.99219 278.962 8.82812C279.108 8.66406 279.331 8.58203 279.63 8.58203C279.893 8.58203 280.107 8.6582 280.271 8.81055C280.441 8.95703 280.526 9.14453 280.526 9.37305C280.526 9.38477 280.529 9.42285 280.535 9.4873C280.541 9.55176 280.544 9.61621 280.544 9.68066V11.5C280.544 11.8926 280.474 12.1738 280.333 12.3438C280.192 12.5137 279.964 12.5986 279.647 12.5986C279.349 12.5986 279.123 12.5195 278.971 12.3613C278.818 12.2031 278.742 11.9688 278.742 11.6582V11.5H277.195V14.1279H281.282V13.082C281.282 12.6895 281.355 12.4082 281.502 12.2383C281.654 12.0684 281.9 11.9834 282.24 11.9834C282.574 11.9834 282.811 12.0684 282.952 12.2383C283.099 12.4023 283.172 12.6836 283.172 13.082V15.209C283.172 15.5254 283.11 15.7363 282.987 15.8418C282.864 15.9473 282.621 16 282.258 16H275.06C274.673 16 274.394 15.9238 274.225 15.7715C274.06 15.6191 273.978 15.3701 273.978 15.0244C273.978 14.7139 274.058 14.4795 274.216 14.3213C274.374 14.1572 274.605 14.0752 274.91 14.0752H275.06V7.51855H274.91C274.611 7.51855 274.38 7.43652 274.216 7.27246C274.058 7.10254 273.978 6.8623 273.978 6.55176C273.978 6.21191 274.063 5.96582 274.233 5.81348C274.403 5.65527 274.679 5.57617 275.06 5.57617H282.258C282.615 5.57617 282.855 5.63184 282.978 5.74316C283.107 5.84863 283.172 6.0625 283.172 6.38477V8.35352C283.172 8.75195 283.099 9.03906 282.952 9.21484C282.806 9.38477 282.568 9.46973 282.24 9.46973C281.9 9.46973 281.654 9.38184 281.502 9.20605C281.355 9.03027 281.282 8.74609 281.282 8.35352V7.43066ZM291.768 11.21C291.92 11.3037 292.069 11.4736 292.216 11.7197C292.239 11.7549 292.26 11.7842 292.277 11.8076L293.71 14.0752H293.807H293.982C294.322 14.0752 294.577 14.1543 294.747 14.3125C294.923 14.4707 295.011 14.708 295.011 15.0244C295.011 15.3701 294.923 15.6191 294.747 15.7715C294.577 15.9238 294.293 16 293.894 16H292.813C292.415 16 292.104 15.8271 291.882 15.4814L291.855 15.4639L289.702 12.1504C289.62 12.0215 289.526 11.9248 289.421 11.8604C289.315 11.79 289.204 11.7549 289.087 11.7549H288.261V14.0752H288.401C288.718 14.0752 288.955 14.1572 289.113 14.3213C289.277 14.4795 289.359 14.7139 289.359 15.0244C289.359 15.3701 289.274 15.6191 289.104 15.7715C288.94 15.9238 288.659 16 288.261 16H285.993C285.601 16 285.319 15.9238 285.149 15.7715C284.979 15.6191 284.894 15.3701 284.894 15.0244C284.894 14.7139 284.974 14.4795 285.132 14.3213C285.296 14.1572 285.533 14.0752 285.844 14.0752H285.993V7.51855H285.844C285.539 7.51855 285.305 7.43652 285.141 7.27246C284.977 7.10254 284.894 6.8623 284.894 6.55176C284.894 6.21191 284.979 5.96582 285.149 5.81348C285.325 5.65527 285.606 5.57617 285.993 5.57617H290.045C291.287 5.57617 292.227 5.81934 292.866 6.30566C293.505 6.78613 293.824 7.49805 293.824 8.44141C293.824 9.09766 293.645 9.66602 293.288 10.1465C292.936 10.627 292.43 10.9814 291.768 11.21ZM288.155 7.46582V9.95312H289.342C290.074 9.95312 290.587 9.85938 290.88 9.67188C291.173 9.47852 291.319 9.15918 291.319 8.71387C291.319 8.27441 291.185 7.95801 290.915 7.76465C290.651 7.56543 290.224 7.46582 289.632 7.46582H288.155Z" fill="white"/>
<path d="M65.7216 56.5186V61.3789V61.5459C65.7216 62.3311 65.6689 62.8994 65.5634 63.251C65.4638 63.6025 65.2939 63.916 65.0536 64.1914C64.7431 64.5488 64.3124 64.8184 63.7616 65C63.2109 65.1816 62.5488 65.2725 61.7753 65.2725C61.2304 65.2725 60.703 65.2197 60.1933 65.1143C59.6894 65.0088 59.203 64.8506 58.7343 64.6396C58.4765 64.5225 58.3066 64.3701 58.2245 64.1826C58.1484 63.9951 58.1103 63.6904 58.1103 63.2686V61.458C58.1103 60.9541 58.1835 60.6025 58.33 60.4033C58.4765 60.2041 58.7314 60.1045 59.0947 60.1045C59.6161 60.1045 59.9032 60.4883 59.956 61.2559C59.9618 61.3906 59.9706 61.4932 59.9823 61.5635C60.0527 62.2432 60.2109 62.709 60.457 62.9609C60.703 63.207 61.0956 63.3301 61.6347 63.3301C62.3027 63.3301 62.7714 63.1543 63.0409 62.8027C63.3163 62.4453 63.454 61.7979 63.454 60.8604V56.5186H61.9775C61.579 56.5186 61.2919 56.4424 61.1161 56.29C60.9462 56.1377 60.8613 55.8916 60.8613 55.5518C60.8613 55.2061 60.9433 54.96 61.1073 54.8135C61.2773 54.667 61.5673 54.5938 61.9775 54.5938H66.4599C66.87 54.5938 67.1572 54.667 67.3212 54.8135C67.4911 54.96 67.5761 55.2061 67.5761 55.5518C67.5761 55.8916 67.4882 56.1377 67.3124 56.29C67.1425 56.4424 66.8583 56.5186 66.4599 56.5186H65.7216ZM71.5488 56.5186V61.1152C71.5488 61.9297 71.6894 62.5098 71.9706 62.8555C72.2577 63.1953 72.7323 63.3652 73.3945 63.3652C74.0566 63.3652 74.5312 63.1924 74.8183 62.8467C75.1054 62.501 75.2489 61.9238 75.2489 61.1152V56.5186H75.1083C74.7978 56.5186 74.5605 56.4365 74.3964 56.2725C74.2382 56.1084 74.1591 55.8682 74.1591 55.5518C74.1591 55.2061 74.2411 54.957 74.4052 54.8047C74.5751 54.6523 74.8564 54.5762 75.2489 54.5762H77.4462C77.8447 54.5762 78.1259 54.6523 78.29 54.8047C78.4599 54.957 78.5448 55.2061 78.5448 55.5518C78.5448 55.8682 78.4628 56.1084 78.2988 56.2725C78.1405 56.4365 77.9062 56.5186 77.5956 56.5186H77.4462V61.0801C77.4462 62.5566 77.1269 63.626 76.4882 64.2881C75.8554 64.9443 74.8329 65.2725 73.4208 65.2725C71.9443 65.2725 70.8837 64.9502 70.2392 64.3057C69.6005 63.6553 69.2812 62.5801 69.2812 61.0801V56.5186H69.1318C68.8154 56.5186 68.5751 56.4365 68.4111 56.2725C68.247 56.1084 68.165 55.8682 68.165 55.5518C68.165 55.2061 68.2499 54.957 68.4198 54.8047C68.5956 54.6523 68.8827 54.5762 69.2812 54.5762H71.5488C71.9413 54.5762 72.2255 54.6523 72.4013 54.8047C72.5771 54.957 72.665 55.2061 72.665 55.5518C72.665 55.8682 72.58 56.1084 72.4101 56.2725C72.246 56.4365 72.0058 56.5186 71.6894 56.5186H71.5488ZM84.1874 60.5L85.8661 55.5166C85.9716 55.1885 86.1181 54.9512 86.3056 54.8047C86.4931 54.6523 86.7421 54.5762 87.0527 54.5762H88.4238C88.8222 54.5762 89.1064 54.6523 89.2763 54.8047C89.4521 54.957 89.54 55.2061 89.54 55.5518C89.54 55.8682 89.455 56.1084 89.2851 56.2725C89.121 56.4365 88.8808 56.5186 88.5644 56.5186H88.4238L88.6698 63.0752H88.8193C89.1357 63.0752 89.373 63.1572 89.5312 63.3213C89.6894 63.4795 89.7685 63.7139 89.7685 64.0244C89.7685 64.3701 89.6835 64.6191 89.5136 64.7715C89.3495 64.9238 89.0683 65 88.6698 65H86.6923C86.2939 65 86.0097 64.9268 85.8398 64.7803C85.6757 64.6279 85.5937 64.376 85.5937 64.0244C85.5937 63.7139 85.6728 63.4795 85.831 63.3213C85.995 63.1572 86.2353 63.0752 86.5517 63.0752H86.6923L86.5693 57.7139L85.2861 61.7041C85.1923 62.0029 85.0575 62.2197 84.8818 62.3545C84.7118 62.4834 84.4745 62.5479 84.1698 62.5479C83.8652 62.5479 83.622 62.4834 83.4404 62.3545C83.2646 62.2197 83.1298 62.0029 83.0361 61.7041L81.7616 57.7139L81.6386 63.0752H81.7792C82.0956 63.0752 82.3329 63.1572 82.4911 63.3213C82.6552 63.4795 82.7372 63.7139 82.7372 64.0244C82.7372 64.3701 82.6523 64.6191 82.4823 64.7715C82.3124 64.9238 82.0312 65 81.6386 65H79.6523C79.2597 65 78.9784 64.9238 78.8085 64.7715C78.6386 64.6191 78.5536 64.3701 78.5536 64.0244C78.5536 63.7139 78.6327 63.4795 78.7909 63.3213C78.955 63.1572 79.1952 63.0752 79.5116 63.0752H79.6523L79.9072 56.5186H79.7665C79.4501 56.5186 79.207 56.4365 79.037 56.2725C78.873 56.1084 78.7909 55.8682 78.7909 55.5518C78.7909 55.2061 78.8759 54.957 79.0458 54.8047C79.2216 54.6523 79.5087 54.5762 79.9072 54.5762H81.2782C81.5829 54.5762 81.8261 54.6494 82.0077 54.7959C82.1952 54.9424 82.3476 55.1826 82.4648 55.5166L84.1874 60.5ZM93.7939 61.2734V63.0752H94.6991C95.08 63.0752 95.3495 63.1484 95.5077 63.2949C95.6718 63.4414 95.7538 63.6846 95.7538 64.0244C95.7538 64.3701 95.6718 64.6191 95.5077 64.7715C95.3437 64.9238 95.0741 65 94.6991 65H91.6581C91.2714 65 90.9931 64.9238 90.8232 64.7715C90.6591 64.6191 90.5771 64.3701 90.5771 64.0244C90.5771 63.7139 90.6562 63.4795 90.8144 63.3213C90.9726 63.1572 91.204 63.0752 91.5087 63.0752H91.6581V56.5186H91.5087C91.2099 56.5186 90.9784 56.4365 90.8144 56.2725C90.6562 56.1025 90.5771 55.8623 90.5771 55.5518C90.5771 55.2119 90.662 54.9658 90.832 54.8135C91.0019 54.6553 91.2773 54.5762 91.6581 54.5762H95.288C96.7236 54.5762 97.8075 54.8516 98.54 55.4023C99.2782 55.9531 99.6474 56.7646 99.6474 57.8369C99.6474 58.9678 99.2812 59.8232 98.5488 60.4033C97.8163 60.9834 96.7294 61.2734 95.288 61.2734H93.7939ZM93.7939 56.5186V59.2959H95.0419C95.7333 59.2959 96.2519 59.1787 96.5976 58.9443C96.9491 58.71 97.1249 58.3584 97.1249 57.8896C97.1249 57.4502 96.9433 57.1133 96.58 56.8789C96.2226 56.6387 95.7099 56.5186 95.0419 56.5186H93.7939ZM105.791 62.249C106.318 62.249 106.737 62.3838 107.048 62.6533C107.364 62.917 107.522 63.2686 107.522 63.708C107.522 64.1475 107.364 64.5078 107.048 64.7891C106.731 65.0645 106.312 65.2021 105.791 65.2021C105.287 65.2021 104.874 65.0615 104.552 64.7803C104.229 64.499 104.068 64.1416 104.068 63.708C104.068 63.2803 104.229 62.9316 104.552 62.6621C104.874 62.3867 105.287 62.249 105.791 62.249ZM106.942 55.1738L106.608 60.8779C106.597 61.0713 106.515 61.2324 106.362 61.3613C106.216 61.4844 106.025 61.5459 105.791 61.5459C105.568 61.5459 105.381 61.4814 105.228 61.3525C105.076 61.2236 104.994 61.0654 104.982 60.8779L104.64 55.1738V55.1035C104.64 54.7578 104.742 54.4854 104.947 54.2861C105.152 54.0869 105.434 53.9873 105.791 53.9873C106.154 53.9873 106.435 54.084 106.635 54.2773C106.84 54.4707 106.942 54.7402 106.942 55.0859V55.1738ZM130.585 56.5186V61.3789V61.5459C130.585 62.3311 130.532 62.8994 130.427 63.251C130.327 63.6025 130.157 63.916 129.917 64.1914C129.606 64.5488 129.176 64.8184 128.625 65C128.074 65.1816 127.412 65.2725 126.639 65.2725C126.094 65.2725 125.566 65.2197 125.057 65.1143C124.553 65.0088 124.066 64.8506 123.598 64.6396C123.34 64.5225 123.17 64.3701 123.088 64.1826C123.012 63.9951 122.974 63.6904 122.974 63.2686V61.458C122.974 60.9541 123.047 60.6025 123.193 60.4033C123.34 60.2041 123.595 60.1045 123.958 60.1045C124.479 60.1045 124.767 60.4883 124.819 61.2559C124.825 61.3906 124.834 61.4932 124.846 61.5635C124.916 62.2432 125.074 62.709 125.32 62.9609C125.566 63.207 125.959 63.3301 126.498 63.3301C127.166 63.3301 127.635 63.1543 127.904 62.8027C128.18 62.4453 128.317 61.7979 128.317 60.8604V56.5186H126.841C126.442 56.5186 126.155 56.4424 125.979 56.29C125.809 56.1377 125.725 55.8916 125.725 55.5518C125.725 55.2061 125.807 54.96 125.971 54.8135C126.141 54.667 126.431 54.5938 126.841 54.5938H131.323C131.733 54.5938 132.02 54.667 132.184 54.8135C132.354 54.96 132.439 55.2061 132.439 55.5518C132.439 55.8916 132.351 56.1377 132.176 56.29C132.006 56.4424 131.722 56.5186 131.323 56.5186H130.585ZM136.412 56.5186V61.1152C136.412 61.9297 136.553 62.5098 136.834 62.8555C137.121 63.1953 137.596 63.3652 138.258 63.3652C138.92 63.3652 139.394 63.1924 139.682 62.8467C139.969 62.501 140.112 61.9238 140.112 61.1152V56.5186H139.972C139.661 56.5186 139.424 56.4365 139.26 56.2725C139.101 56.1084 139.022 55.8682 139.022 55.5518C139.022 55.2061 139.104 54.957 139.268 54.8047C139.438 54.6523 139.72 54.5762 140.112 54.5762H142.309C142.708 54.5762 142.989 54.6523 143.153 54.8047C143.323 54.957 143.408 55.2061 143.408 55.5518C143.408 55.8682 143.326 56.1084 143.162 56.2725C143.004 56.4365 142.769 56.5186 142.459 56.5186H142.309V61.0801C142.309 62.5566 141.99 63.626 141.351 64.2881C140.719 64.9443 139.696 65.2725 138.284 65.2725C136.808 65.2725 135.747 64.9502 135.102 64.3057C134.464 63.6553 134.144 62.5801 134.144 61.0801V56.5186H133.995C133.679 56.5186 133.438 56.4365 133.274 56.2725C133.11 56.1084 133.028 55.8682 133.028 55.5518C133.028 55.2061 133.113 54.957 133.283 54.8047C133.459 54.6523 133.746 54.5762 134.144 54.5762H136.412C136.805 54.5762 137.089 54.6523 137.265 54.8047C137.44 54.957 137.528 55.2061 137.528 55.5518C137.528 55.8682 137.443 56.1084 137.273 56.2725C137.109 56.4365 136.869 56.5186 136.553 56.5186H136.412ZM149.051 60.5L150.729 55.5166C150.835 55.1885 150.981 54.9512 151.169 54.8047C151.356 54.6523 151.605 54.5762 151.916 54.5762H153.287C153.685 54.5762 153.97 54.6523 154.14 54.8047C154.315 54.957 154.403 55.2061 154.403 55.5518C154.403 55.8682 154.318 56.1084 154.148 56.2725C153.984 56.4365 153.744 56.5186 153.428 56.5186H153.287L153.533 63.0752H153.683C153.999 63.0752 154.236 63.1572 154.394 63.3213C154.553 63.4795 154.632 63.7139 154.632 64.0244C154.632 64.3701 154.547 64.6191 154.377 64.7715C154.213 64.9238 153.932 65 153.533 65H151.556C151.157 65 150.873 64.9268 150.703 64.7803C150.539 64.6279 150.457 64.376 150.457 64.0244C150.457 63.7139 150.536 63.4795 150.694 63.3213C150.858 63.1572 151.099 63.0752 151.415 63.0752H151.556L151.433 57.7139L150.149 61.7041C150.056 62.0029 149.921 62.2197 149.745 62.3545C149.575 62.4834 149.338 62.5479 149.033 62.5479C148.728 62.5479 148.485 62.4834 148.304 62.3545C148.128 62.2197 147.993 62.0029 147.899 61.7041L146.625 57.7139L146.502 63.0752H146.643C146.959 63.0752 147.196 63.1572 147.354 63.3213C147.518 63.4795 147.601 63.7139 147.601 64.0244C147.601 64.3701 147.516 64.6191 147.346 64.7715C147.176 64.9238 146.894 65 146.502 65H144.516C144.123 65 143.842 64.9238 143.672 64.7715C143.502 64.6191 143.417 64.3701 143.417 64.0244C143.417 63.7139 143.496 63.4795 143.654 63.3213C143.818 63.1572 144.059 63.0752 144.375 63.0752H144.516L144.77 56.5186H144.63C144.313 56.5186 144.07 56.4365 143.9 56.2725C143.736 56.1084 143.654 55.8682 143.654 55.5518C143.654 55.2061 143.739 54.957 143.909 54.8047C144.085 54.6523 144.372 54.5762 144.77 54.5762H146.142C146.446 54.5762 146.689 54.6494 146.871 54.7959C147.059 54.9424 147.211 55.1826 147.328 55.5166L149.051 60.5ZM158.657 61.2734V63.0752H159.562C159.943 63.0752 160.213 63.1484 160.371 63.2949C160.535 63.4414 160.617 63.6846 160.617 64.0244C160.617 64.3701 160.535 64.6191 160.371 64.7715C160.207 64.9238 159.937 65 159.562 65H156.521C156.135 65 155.856 64.9238 155.686 64.7715C155.522 64.6191 155.44 64.3701 155.44 64.0244C155.44 63.7139 155.519 63.4795 155.678 63.3213C155.836 63.1572 156.067 63.0752 156.372 63.0752H156.521V56.5186H156.372C156.073 56.5186 155.842 56.4365 155.678 56.2725C155.519 56.1025 155.44 55.8623 155.44 55.5518C155.44 55.2119 155.525 54.9658 155.695 54.8135C155.865 54.6553 156.141 54.5762 156.521 54.5762H160.151C161.587 54.5762 162.671 54.8516 163.403 55.4023C164.142 55.9531 164.511 56.7646 164.511 57.8369C164.511 58.9678 164.144 59.8232 163.412 60.4033C162.68 60.9834 161.593 61.2734 160.151 61.2734H158.657ZM158.657 56.5186V59.2959H159.905C160.597 59.2959 161.115 59.1787 161.461 58.9443C161.812 58.71 161.988 58.3584 161.988 57.8896C161.988 57.4502 161.807 57.1133 161.443 56.8789C161.086 56.6387 160.573 56.5186 159.905 56.5186H158.657ZM170.654 62.249C171.182 62.249 171.601 62.3838 171.911 62.6533C172.227 62.917 172.386 63.2686 172.386 63.708C172.386 64.1475 172.227 64.5078 171.911 64.7891C171.595 65.0645 171.176 65.2021 170.654 65.2021C170.15 65.2021 169.737 65.0615 169.415 64.7803C169.093 64.499 168.932 64.1416 168.932 63.708C168.932 63.2803 169.093 62.9316 169.415 62.6621C169.737 62.3867 170.15 62.249 170.654 62.249ZM171.806 55.1738L171.472 60.8779C171.46 61.0713 171.378 61.2324 171.226 61.3613C171.079 61.4844 170.889 61.5459 170.654 61.5459C170.432 61.5459 170.244 61.4814 170.092 61.3525C169.939 61.2236 169.857 61.0654 169.846 60.8779L169.503 55.1738V55.1035C169.503 54.7578 169.605 54.4854 169.81 54.2861C170.016 54.0869 170.297 53.9873 170.654 53.9873C171.018 53.9873 171.299 54.084 171.498 54.2773C171.703 54.4707 171.806 54.7402 171.806 55.0859V55.1738ZM195.448 56.5186V61.3789V61.5459C195.448 62.3311 195.395 62.8994 195.29 63.251C195.19 63.6025 195.02 63.916 194.78 64.1914C194.47 64.5488 194.039 64.8184 193.488 65C192.937 65.1816 192.275 65.2725 191.502 65.2725C190.957 65.2725 190.43 65.2197 189.92 65.1143C189.416 65.0088 188.93 64.8506 188.461 64.6396C188.203 64.5225 188.033 64.3701 187.951 64.1826C187.875 63.9951 187.837 63.6904 187.837 63.2686V61.458C187.837 60.9541 187.91 60.6025 188.057 60.4033C188.203 60.2041 188.458 60.1045 188.821 60.1045C189.343 60.1045 189.63 60.4883 189.683 61.2559C189.688 61.3906 189.697 61.4932 189.709 61.5635C189.779 62.2432 189.937 62.709 190.184 62.9609C190.43 63.207 190.822 63.3301 191.361 63.3301C192.029 63.3301 192.498 63.1543 192.768 62.8027C193.043 62.4453 193.181 61.7979 193.181 60.8604V56.5186H191.704C191.306 56.5186 191.018 56.4424 190.843 56.29C190.673 56.1377 190.588 55.8916 190.588 55.5518C190.588 55.2061 190.67 54.96 190.834 54.8135C191.004 54.667 191.294 54.5938 191.704 54.5938H196.186C196.597 54.5938 196.884 54.667 197.048 54.8135C197.218 54.96 197.303 55.2061 197.303 55.5518C197.303 55.8916 197.215 56.1377 197.039 56.29C196.869 56.4424 196.585 56.5186 196.186 56.5186H195.448ZM201.275 56.5186V61.1152C201.275 61.9297 201.416 62.5098 201.697 62.8555C201.984 63.1953 202.459 63.3652 203.121 63.3652C203.783 63.3652 204.258 63.1924 204.545 62.8467C204.832 62.501 204.976 61.9238 204.976 61.1152V56.5186H204.835C204.524 56.5186 204.287 56.4365 204.123 56.2725C203.965 56.1084 203.886 55.8682 203.886 55.5518C203.886 55.2061 203.968 54.957 204.132 54.8047C204.302 54.6523 204.583 54.5762 204.976 54.5762H207.173C207.571 54.5762 207.852 54.6523 208.017 54.8047C208.186 54.957 208.271 55.2061 208.271 55.5518C208.271 55.8682 208.189 56.1084 208.025 56.2725C207.867 56.4365 207.633 56.5186 207.322 56.5186H207.173V61.0801C207.173 62.5566 206.853 63.626 206.215 64.2881C205.582 64.9443 204.559 65.2725 203.147 65.2725C201.671 65.2725 200.61 64.9502 199.966 64.3057C199.327 63.6553 199.008 62.5801 199.008 61.0801V56.5186H198.858C198.542 56.5186 198.302 56.4365 198.138 56.2725C197.974 56.1084 197.892 55.8682 197.892 55.5518C197.892 55.2061 197.976 54.957 198.146 54.8047C198.322 54.6523 198.609 54.5762 199.008 54.5762H201.275C201.668 54.5762 201.952 54.6523 202.128 54.8047C202.304 54.957 202.392 55.2061 202.392 55.5518C202.392 55.8682 202.307 56.1084 202.137 56.2725C201.973 56.4365 201.732 56.5186 201.416 56.5186H201.275ZM213.914 60.5L215.593 55.5166C215.698 55.1885 215.845 54.9512 216.032 54.8047C216.22 54.6523 216.469 54.5762 216.779 54.5762H218.15C218.549 54.5762 218.833 54.6523 219.003 54.8047C219.179 54.957 219.267 55.2061 219.267 55.5518C219.267 55.8682 219.182 56.1084 219.012 56.2725C218.848 56.4365 218.607 56.5186 218.291 56.5186H218.15L218.396 63.0752H218.546C218.862 63.0752 219.1 63.1572 219.258 63.3213C219.416 63.4795 219.495 63.7139 219.495 64.0244C219.495 64.3701 219.41 64.6191 219.24 64.7715C219.076 64.9238 218.795 65 218.396 65H216.419C216.02 65 215.736 64.9268 215.566 64.7803C215.402 64.6279 215.32 64.376 215.32 64.0244C215.32 63.7139 215.399 63.4795 215.558 63.3213C215.722 63.1572 215.962 63.0752 216.278 63.0752H216.419L216.296 57.7139L215.013 61.7041C214.919 62.0029 214.784 62.2197 214.608 62.3545C214.438 62.4834 214.201 62.5479 213.896 62.5479C213.592 62.5479 213.349 62.4834 213.167 62.3545C212.991 62.2197 212.856 62.0029 212.763 61.7041L211.488 57.7139L211.365 63.0752H211.506C211.822 63.0752 212.059 63.1572 212.218 63.3213C212.382 63.4795 212.464 63.7139 212.464 64.0244C212.464 64.3701 212.379 64.6191 212.209 64.7715C212.039 64.9238 211.758 65 211.365 65H209.379C208.986 65 208.705 64.9238 208.535 64.7715C208.365 64.6191 208.28 64.3701 208.28 64.0244C208.28 63.7139 208.359 63.4795 208.518 63.3213C208.682 63.1572 208.922 63.0752 209.238 63.0752H209.379L209.634 56.5186H209.493C209.177 56.5186 208.934 56.4365 208.764 56.2725C208.6 56.1084 208.518 55.8682 208.518 55.5518C208.518 55.2061 208.602 54.957 208.772 54.8047C208.948 54.6523 209.235 54.5762 209.634 54.5762H211.005C211.309 54.5762 211.553 54.6494 211.734 54.7959C211.922 54.9424 212.074 55.1826 212.191 55.5166L213.914 60.5ZM223.52 61.2734V63.0752H224.426C224.807 63.0752 225.076 63.1484 225.234 63.2949C225.398 63.4414 225.48 63.6846 225.48 64.0244C225.48 64.3701 225.398 64.6191 225.234 64.7715C225.07 64.9238 224.801 65 224.426 65H221.385C220.998 65 220.72 64.9238 220.55 64.7715C220.386 64.6191 220.304 64.3701 220.304 64.0244C220.304 63.7139 220.383 63.4795 220.541 63.3213C220.699 63.1572 220.931 63.0752 221.235 63.0752H221.385V56.5186H221.235C220.936 56.5186 220.705 56.4365 220.541 56.2725C220.383 56.1025 220.304 55.8623 220.304 55.5518C220.304 55.2119 220.389 54.9658 220.559 54.8135C220.728 54.6553 221.004 54.5762 221.385 54.5762H225.015C226.45 54.5762 227.534 54.8516 228.267 55.4023C229.005 55.9531 229.374 56.7646 229.374 57.8369C229.374 58.9678 229.008 59.8232 228.275 60.4033C227.543 60.9834 226.456 61.2734 225.015 61.2734H223.52ZM223.52 56.5186V59.2959H224.768C225.46 59.2959 225.978 59.1787 226.324 58.9443C226.676 58.71 226.851 58.3584 226.851 57.8896C226.851 57.4502 226.67 57.1133 226.307 56.8789C225.949 56.6387 225.436 56.5186 224.768 56.5186H223.52ZM235.518 62.249C236.045 62.249 236.464 62.3838 236.774 62.6533C237.091 62.917 237.249 63.2686 237.249 63.708C237.249 64.1475 237.091 64.5078 236.774 64.7891C236.458 65.0645 236.039 65.2021 235.518 65.2021C235.014 65.2021 234.601 65.0615 234.278 64.7803C233.956 64.499 233.795 64.1416 233.795 63.708C233.795 63.2803 233.956 62.9316 234.278 62.6621C234.601 62.3867 235.014 62.249 235.518 62.249ZM236.669 55.1738L236.335 60.8779C236.323 61.0713 236.241 61.2324 236.089 61.3613C235.942 61.4844 235.752 61.5459 235.518 61.5459C235.295 61.5459 235.107 61.4814 234.955 61.3525C234.803 61.2236 234.721 61.0654 234.709 60.8779L234.366 55.1738V55.1035C234.366 54.7578 234.469 54.4854 234.674 54.2861C234.879 54.0869 235.16 53.9873 235.518 53.9873C235.881 53.9873 236.162 54.084 236.361 54.2773C236.566 54.4707 236.669 54.7402 236.669 55.0859V55.1738Z" fill="white"/>
<path d="M179.445 89.0752H179.586C179.902 89.0752 180.143 89.1602 180.307 89.3301C180.477 89.4941 180.562 89.7314 180.562 90.042C180.562 90.3818 180.474 90.6279 180.298 90.7803C180.128 90.9268 179.844 91 179.445 91H178.619C178.326 91 178.106 90.9443 177.96 90.833C177.819 90.7217 177.702 90.5195 177.608 90.2266C177.122 90.5488 176.606 90.7949 176.062 90.9648C175.517 91.1348 174.966 91.2197 174.409 91.2197C173.466 91.2197 172.725 90.9854 172.186 90.5166C171.646 90.0479 171.377 89.4062 171.377 88.5918C171.377 87.7129 171.726 87.0303 172.423 86.5439C173.12 86.0576 174.099 85.8145 175.358 85.8145C175.64 85.8145 175.938 85.8291 176.255 85.8584C176.571 85.8877 176.926 85.9346 177.318 85.999V85.832C177.318 85.3047 177.189 84.9033 176.932 84.6279C176.68 84.3525 176.305 84.2148 175.807 84.2148C175.42 84.2148 174.925 84.3584 174.321 84.6455C173.724 84.9326 173.284 85.0762 173.003 85.0762C172.728 85.0762 172.505 84.9971 172.335 84.8389C172.165 84.6748 172.08 84.4609 172.08 84.1973C172.08 83.7227 172.426 83.3477 173.117 83.0723C173.814 82.791 174.761 82.6504 175.956 82.6504C177.204 82.6504 178.098 82.8906 178.637 83.3711C179.176 83.8516 179.445 84.666 179.445 85.8145V89.0752ZM177.318 87.3789C177.025 87.3145 176.756 87.2676 176.51 87.2383C176.264 87.2031 176.035 87.1855 175.824 87.1855C175.18 87.1855 174.673 87.2939 174.304 87.5107C173.94 87.7275 173.759 88.0264 173.759 88.4072C173.759 88.7471 173.876 89.0078 174.11 89.1895C174.345 89.3652 174.682 89.4531 175.121 89.4531C175.525 89.4531 175.906 89.3945 176.264 89.2773C176.621 89.1602 176.973 88.9785 177.318 88.7324V87.3789ZM190.256 89.0752H190.396C190.713 89.0752 190.953 89.1602 191.117 89.3301C191.287 89.4941 191.372 89.7314 191.372 90.042C191.372 90.3818 191.284 90.6279 191.108 90.7803C190.938 90.9268 190.654 91 190.256 91H189.43C189.137 91 188.917 90.9443 188.771 90.833C188.63 90.7217 188.513 90.5195 188.419 90.2266C187.933 90.5488 187.417 90.7949 186.872 90.9648C186.327 91.1348 185.776 91.2197 185.22 91.2197C184.276 91.2197 183.535 90.9854 182.996 90.5166C182.457 90.0479 182.188 89.4062 182.188 88.5918C182.188 87.7129 182.536 87.0303 183.233 86.5439C183.931 86.0576 184.909 85.8145 186.169 85.8145C186.45 85.8145 186.749 85.8291 187.065 85.8584C187.382 85.8877 187.736 85.9346 188.129 85.999V85.832C188.129 85.3047 188 84.9033 187.742 84.6279C187.49 84.3525 187.115 84.2148 186.617 84.2148C186.23 84.2148 185.735 84.3584 185.132 84.6455C184.534 84.9326 184.095 85.0762 183.813 85.0762C183.538 85.0762 183.315 84.9971 183.146 84.8389C182.976 84.6748 182.891 84.4609 182.891 84.1973C182.891 83.7227 183.236 83.3477 183.928 83.0723C184.625 82.791 185.571 82.6504 186.767 82.6504C188.015 82.6504 188.908 82.8906 189.447 83.3711C189.986 83.8516 190.256 84.666 190.256 85.8145V89.0752ZM188.129 87.3789C187.836 87.3145 187.566 87.2676 187.32 87.2383C187.074 87.2031 186.846 87.1855 186.635 87.1855C185.99 87.1855 185.483 87.2939 185.114 87.5107C184.751 87.7275 184.569 88.0264 184.569 88.4072C184.569 88.7471 184.687 89.0078 184.921 89.1895C185.155 89.3652 185.492 89.4531 185.932 89.4531C186.336 89.4531 186.717 89.3945 187.074 89.2773C187.432 89.1602 187.783 88.9785 188.129 88.7324V87.3789ZM201.066 89.0752H201.207C201.523 89.0752 201.764 89.1602 201.928 89.3301C202.098 89.4941 202.183 89.7314 202.183 90.042C202.183 90.3818 202.095 90.6279 201.919 90.7803C201.749 90.9268 201.465 91 201.066 91H200.24C199.947 91 199.728 90.9443 199.581 90.833C199.44 90.7217 199.323 90.5195 199.229 90.2266C198.743 90.5488 198.228 90.7949 197.683 90.9648C197.138 91.1348 196.587 91.2197 196.03 91.2197C195.087 91.2197 194.346 90.9854 193.807 90.5166C193.268 90.0479 192.998 89.4062 192.998 88.5918C192.998 87.7129 193.347 87.0303 194.044 86.5439C194.741 86.0576 195.72 85.8145 196.979 85.8145C197.261 85.8145 197.56 85.8291 197.876 85.8584C198.192 85.8877 198.547 85.9346 198.939 85.999V85.832C198.939 85.3047 198.811 84.9033 198.553 84.6279C198.301 84.3525 197.926 84.2148 197.428 84.2148C197.041 84.2148 196.546 84.3584 195.942 84.6455C195.345 84.9326 194.905 85.0762 194.624 85.0762C194.349 85.0762 194.126 84.9971 193.956 84.8389C193.786 84.6748 193.701 84.4609 193.701 84.1973C193.701 83.7227 194.047 83.3477 194.738 83.0723C195.436 82.791 196.382 82.6504 197.577 82.6504C198.825 82.6504 199.719 82.8906 200.258 83.3711C200.797 83.8516 201.066 84.666 201.066 85.8145V89.0752ZM198.939 87.3789C198.646 87.3145 198.377 87.2676 198.131 87.2383C197.885 87.2031 197.656 87.1855 197.445 87.1855C196.801 87.1855 196.294 87.2939 195.925 87.5107C195.562 87.7275 195.38 88.0264 195.38 88.4072C195.38 88.7471 195.497 89.0078 195.731 89.1895C195.966 89.3652 196.303 89.4531 196.742 89.4531C197.146 89.4531 197.527 89.3945 197.885 89.2773C198.242 89.1602 198.594 88.9785 198.939 88.7324V87.3789ZM211.877 89.0752H212.018C212.334 89.0752 212.574 89.1602 212.738 89.3301C212.908 89.4941 212.993 89.7314 212.993 90.042C212.993 90.3818 212.905 90.6279 212.729 90.7803C212.56 90.9268 212.275 91 211.877 91H211.051C210.758 91 210.538 90.9443 210.392 90.833C210.251 90.7217 210.134 90.5195 210.04 90.2266C209.554 90.5488 209.038 90.7949 208.493 90.9648C207.948 91.1348 207.397 91.2197 206.841 91.2197C205.897 91.2197 205.156 90.9854 204.617 90.5166C204.078 90.0479 203.809 89.4062 203.809 88.5918C203.809 87.7129 204.157 87.0303 204.854 86.5439C205.552 86.0576 206.53 85.8145 207.79 85.8145C208.071 85.8145 208.37 85.8291 208.687 85.8584C209.003 85.8877 209.357 85.9346 209.75 85.999V85.832C209.75 85.3047 209.621 84.9033 209.363 84.6279C209.111 84.3525 208.736 84.2148 208.238 84.2148C207.852 84.2148 207.356 84.3584 206.753 84.6455C206.155 84.9326 205.716 85.0762 205.435 85.0762C205.159 85.0762 204.937 84.9971 204.767 84.8389C204.597 84.6748 204.512 84.4609 204.512 84.1973C204.512 83.7227 204.857 83.3477 205.549 83.0723C206.246 82.791 207.192 82.6504 208.388 82.6504C209.636 82.6504 210.529 82.8906 211.068 83.3711C211.607 83.8516 211.877 84.666 211.877 85.8145V89.0752ZM209.75 87.3789C209.457 87.3145 209.188 87.2676 208.941 87.2383C208.695 87.2031 208.467 87.1855 208.256 87.1855C207.611 87.1855 207.104 87.2939 206.735 87.5107C206.372 87.7275 206.19 88.0264 206.19 88.4072C206.19 88.7471 206.308 89.0078 206.542 89.1895C206.776 89.3652 207.113 89.4531 207.553 89.4531C207.957 89.4531 208.338 89.3945 208.695 89.2773C209.053 89.1602 209.404 88.9785 209.75 88.7324V87.3789ZM222.688 89.0752H222.828C223.145 89.0752 223.385 89.1602 223.549 89.3301C223.719 89.4941 223.804 89.7314 223.804 90.042C223.804 90.3818 223.716 90.6279 223.54 90.7803C223.37 90.9268 223.086 91 222.688 91H221.861C221.568 91 221.349 90.9443 221.202 90.833C221.062 90.7217 220.944 90.5195 220.851 90.2266C220.364 90.5488 219.849 90.7949 219.304 90.9648C218.759 91.1348 218.208 91.2197 217.651 91.2197C216.708 91.2197 215.967 90.9854 215.428 90.5166C214.889 90.0479 214.619 89.4062 214.619 88.5918C214.619 87.7129 214.968 87.0303 215.665 86.5439C216.362 86.0576 217.341 85.8145 218.601 85.8145C218.882 85.8145 219.181 85.8291 219.497 85.8584C219.813 85.8877 220.168 85.9346 220.561 85.999V85.832C220.561 85.3047 220.432 84.9033 220.174 84.6279C219.922 84.3525 219.547 84.2148 219.049 84.2148C218.662 84.2148 218.167 84.3584 217.563 84.6455C216.966 84.9326 216.526 85.0762 216.245 85.0762C215.97 85.0762 215.747 84.9971 215.577 84.8389C215.407 84.6748 215.322 84.4609 215.322 84.1973C215.322 83.7227 215.668 83.3477 216.359 83.0723C217.057 82.791 218.003 82.6504 219.198 82.6504C220.446 82.6504 221.34 82.8906 221.879 83.3711C222.418 83.8516 222.688 84.666 222.688 85.8145V89.0752ZM220.561 87.3789C220.268 87.3145 219.998 87.2676 219.752 87.2383C219.506 87.2031 219.277 87.1855 219.066 87.1855C218.422 87.1855 217.915 87.2939 217.546 87.5107C217.183 87.7275 217.001 88.0264 217.001 88.4072C217.001 88.7471 217.118 89.0078 217.353 89.1895C217.587 89.3652 217.924 89.4531 218.363 89.4531C218.768 89.4531 219.148 89.3945 219.506 89.2773C219.863 89.1602 220.215 88.9785 220.561 88.7324V87.3789ZM233.498 89.0752H233.639C233.955 89.0752 234.195 89.1602 234.359 89.3301C234.529 89.4941 234.614 89.7314 234.614 90.042C234.614 90.3818 234.526 90.6279 234.351 90.7803C234.181 90.9268 233.896 91 233.498 91H232.672C232.379 91 232.159 90.9443 232.013 90.833C231.872 90.7217 231.755 90.5195 231.661 90.2266C231.175 90.5488 230.659 90.7949 230.114 90.9648C229.569 91.1348 229.019 91.2197 228.462 91.2197C227.519 91.2197 226.777 90.9854 226.238 90.5166C225.699 90.0479 225.43 89.4062 225.43 88.5918C225.43 87.7129 225.778 87.0303 226.476 86.5439C227.173 86.0576 228.151 85.8145 229.411 85.8145C229.692 85.8145 229.991 85.8291 230.308 85.8584C230.624 85.8877 230.979 85.9346 231.371 85.999V85.832C231.371 85.3047 231.242 84.9033 230.984 84.6279C230.732 84.3525 230.357 84.2148 229.859 84.2148C229.473 84.2148 228.978 84.3584 228.374 84.6455C227.776 84.9326 227.337 85.0762 227.056 85.0762C226.78 85.0762 226.558 84.9971 226.388 84.8389C226.218 84.6748 226.133 84.4609 226.133 84.1973C226.133 83.7227 226.479 83.3477 227.17 83.0723C227.867 82.791 228.813 82.6504 230.009 82.6504C231.257 82.6504 232.15 82.8906 232.689 83.3711C233.229 83.8516 233.498 84.666 233.498 85.8145V89.0752ZM231.371 87.3789C231.078 87.3145 230.809 87.2676 230.562 87.2383C230.316 87.2031 230.088 87.1855 229.877 87.1855C229.232 87.1855 228.726 87.2939 228.356 87.5107C227.993 87.7275 227.812 88.0264 227.812 88.4072C227.812 88.7471 227.929 89.0078 228.163 89.1895C228.397 89.3652 228.734 89.4531 229.174 89.4531C229.578 89.4531 229.959 89.3945 230.316 89.2773C230.674 89.1602 231.025 88.9785 231.371 88.7324V87.3789ZM244.309 89.0752H244.449C244.766 89.0752 245.006 89.1602 245.17 89.3301C245.34 89.4941 245.425 89.7314 245.425 90.042C245.425 90.3818 245.337 90.6279 245.161 90.7803C244.991 90.9268 244.707 91 244.309 91H243.482C243.189 91 242.97 90.9443 242.823 90.833C242.683 90.7217 242.565 90.5195 242.472 90.2266C241.985 90.5488 241.47 90.7949 240.925 90.9648C240.38 91.1348 239.829 91.2197 239.272 91.2197C238.329 91.2197 237.588 90.9854 237.049 90.5166C236.51 90.0479 236.24 89.4062 236.24 88.5918C236.24 87.7129 236.589 87.0303 237.286 86.5439C237.983 86.0576 238.962 85.8145 240.222 85.8145C240.503 85.8145 240.802 85.8291 241.118 85.8584C241.435 85.8877 241.789 85.9346 242.182 85.999V85.832C242.182 85.3047 242.053 84.9033 241.795 84.6279C241.543 84.3525 241.168 84.2148 240.67 84.2148C240.283 84.2148 239.788 84.3584 239.185 84.6455C238.587 84.9326 238.147 85.0762 237.866 85.0762C237.591 85.0762 237.368 84.9971 237.198 84.8389C237.028 84.6748 236.943 84.4609 236.943 84.1973C236.943 83.7227 237.289 83.3477 237.98 83.0723C238.678 82.791 239.624 82.6504 240.819 82.6504C242.067 82.6504 242.961 82.8906 243.5 83.3711C244.039 83.8516 244.309 84.666 244.309 85.8145V89.0752ZM242.182 87.3789C241.889 87.3145 241.619 87.2676 241.373 87.2383C241.127 87.2031 240.898 87.1855 240.688 87.1855C240.043 87.1855 239.536 87.2939 239.167 87.5107C238.804 87.7275 238.622 88.0264 238.622 88.4072C238.622 88.7471 238.739 89.0078 238.974 89.1895C239.208 89.3652 239.545 89.4531 239.984 89.4531C240.389 89.4531 240.77 89.3945 241.127 89.2773C241.484 89.1602 241.836 88.9785 242.182 88.7324V87.3789ZM255.119 89.0752H255.26C255.576 89.0752 255.816 89.1602 255.98 89.3301C256.15 89.4941 256.235 89.7314 256.235 90.042C256.235 90.3818 256.147 90.6279 255.972 90.7803C255.802 90.9268 255.518 91 255.119 91H254.293C254 91 253.78 90.9443 253.634 90.833C253.493 90.7217 253.376 90.5195 253.282 90.2266C252.796 90.5488 252.28 90.7949 251.735 90.9648C251.19 91.1348 250.64 91.2197 250.083 91.2197C249.14 91.2197 248.398 90.9854 247.859 90.5166C247.32 90.0479 247.051 89.4062 247.051 88.5918C247.051 87.7129 247.399 87.0303 248.097 86.5439C248.794 86.0576 249.772 85.8145 251.032 85.8145C251.313 85.8145 251.612 85.8291 251.929 85.8584C252.245 85.8877 252.6 85.9346 252.992 85.999V85.832C252.992 85.3047 252.863 84.9033 252.605 84.6279C252.354 84.3525 251.979 84.2148 251.48 84.2148C251.094 84.2148 250.599 84.3584 249.995 84.6455C249.397 84.9326 248.958 85.0762 248.677 85.0762C248.401 85.0762 248.179 84.9971 248.009 84.8389C247.839 84.6748 247.754 84.4609 247.754 84.1973C247.754 83.7227 248.1 83.3477 248.791 83.0723C249.488 82.791 250.435 82.6504 251.63 82.6504C252.878 82.6504 253.771 82.8906 254.311 83.3711C254.85 83.8516 255.119 84.666 255.119 85.8145V89.0752ZM252.992 87.3789C252.699 87.3145 252.43 87.2676 252.184 87.2383C251.938 87.2031 251.709 87.1855 251.498 87.1855C250.854 87.1855 250.347 87.2939 249.978 87.5107C249.614 87.7275 249.433 88.0264 249.433 88.4072C249.433 88.7471 249.55 89.0078 249.784 89.1895C250.019 89.3652 250.355 89.4531 250.795 89.4531C251.199 89.4531 251.58 89.3945 251.938 89.2773C252.295 89.1602 252.646 88.9785 252.992 88.7324V87.3789ZM265.93 89.0752H266.07C266.387 89.0752 266.627 89.1602 266.791 89.3301C266.961 89.4941 267.046 89.7314 267.046 90.042C267.046 90.3818 266.958 90.6279 266.782 90.7803C266.612 90.9268 266.328 91 265.93 91H265.104C264.811 91 264.591 90.9443 264.444 90.833C264.304 90.7217 264.187 90.5195 264.093 90.2266C263.606 90.5488 263.091 90.7949 262.546 90.9648C262.001 91.1348 261.45 91.2197 260.894 91.2197C259.95 91.2197 259.209 90.9854 258.67 90.5166C258.131 90.0479 257.861 89.4062 257.861 88.5918C257.861 87.7129 258.21 87.0303 258.907 86.5439C259.604 86.0576 260.583 85.8145 261.843 85.8145C262.124 85.8145 262.423 85.8291 262.739 85.8584C263.056 85.8877 263.41 85.9346 263.803 85.999V85.832C263.803 85.3047 263.674 84.9033 263.416 84.6279C263.164 84.3525 262.789 84.2148 262.291 84.2148C261.904 84.2148 261.409 84.3584 260.806 84.6455C260.208 84.9326 259.769 85.0762 259.487 85.0762C259.212 85.0762 258.989 84.9971 258.819 84.8389C258.649 84.6748 258.564 84.4609 258.564 84.1973C258.564 83.7227 258.91 83.3477 259.602 83.0723C260.299 82.791 261.245 82.6504 262.44 82.6504C263.688 82.6504 264.582 82.8906 265.121 83.3711C265.66 83.8516 265.93 84.666 265.93 85.8145V89.0752ZM263.803 87.3789C263.51 87.3145 263.24 87.2676 262.994 87.2383C262.748 87.2031 262.52 87.1855 262.309 87.1855C261.664 87.1855 261.157 87.2939 260.788 87.5107C260.425 87.7275 260.243 88.0264 260.243 88.4072C260.243 88.7471 260.36 89.0078 260.595 89.1895C260.829 89.3652 261.166 89.4531 261.605 89.4531C262.01 89.4531 262.391 89.3945 262.748 89.2773C263.105 89.1602 263.457 88.9785 263.803 88.7324V87.3789ZM276.74 89.0752H276.881C277.197 89.0752 277.438 89.1602 277.602 89.3301C277.771 89.4941 277.856 89.7314 277.856 90.042C277.856 90.3818 277.769 90.6279 277.593 90.7803C277.423 90.9268 277.139 91 276.74 91H275.914C275.621 91 275.401 90.9443 275.255 90.833C275.114 90.7217 274.997 90.5195 274.903 90.2266C274.417 90.5488 273.901 90.7949 273.356 90.9648C272.812 91.1348 272.261 91.2197 271.704 91.2197C270.761 91.2197 270.02 90.9854 269.48 90.5166C268.941 90.0479 268.672 89.4062 268.672 88.5918C268.672 87.7129 269.021 87.0303 269.718 86.5439C270.415 86.0576 271.394 85.8145 272.653 85.8145C272.935 85.8145 273.233 85.8291 273.55 85.8584C273.866 85.8877 274.221 85.9346 274.613 85.999V85.832C274.613 85.3047 274.484 84.9033 274.227 84.6279C273.975 84.3525 273.6 84.2148 273.102 84.2148C272.715 84.2148 272.22 84.3584 271.616 84.6455C271.019 84.9326 270.579 85.0762 270.298 85.0762C270.022 85.0762 269.8 84.9971 269.63 84.8389C269.46 84.6748 269.375 84.4609 269.375 84.1973C269.375 83.7227 269.721 83.3477 270.412 83.0723C271.109 82.791 272.056 82.6504 273.251 82.6504C274.499 82.6504 275.393 82.8906 275.932 83.3711C276.471 83.8516 276.74 84.666 276.74 85.8145V89.0752ZM274.613 87.3789C274.32 87.3145 274.051 87.2676 273.805 87.2383C273.559 87.2031 273.33 87.1855 273.119 87.1855C272.475 87.1855 271.968 87.2939 271.599 87.5107C271.235 87.7275 271.054 88.0264 271.054 88.4072C271.054 88.7471 271.171 89.0078 271.405 89.1895C271.64 89.3652 271.977 89.4531 272.416 89.4531C272.82 89.4531 273.201 89.3945 273.559 89.2773C273.916 89.1602 274.268 88.9785 274.613 88.7324V87.3789ZM287.551 89.0752H287.691C288.008 89.0752 288.248 89.1602 288.412 89.3301C288.582 89.4941 288.667 89.7314 288.667 90.042C288.667 90.3818 288.579 90.6279 288.403 90.7803C288.233 90.9268 287.949 91 287.551 91H286.725C286.432 91 286.212 90.9443 286.065 90.833C285.925 90.7217 285.808 90.5195 285.714 90.2266C285.228 90.5488 284.712 90.7949 284.167 90.9648C283.622 91.1348 283.071 91.2197 282.515 91.2197C281.571 91.2197 280.83 90.9854 280.291 90.5166C279.752 90.0479 279.482 89.4062 279.482 88.5918C279.482 87.7129 279.831 87.0303 280.528 86.5439C281.226 86.0576 282.204 85.8145 283.464 85.8145C283.745 85.8145 284.044 85.8291 284.36 85.8584C284.677 85.8877 285.031 85.9346 285.424 85.999V85.832C285.424 85.3047 285.295 84.9033 285.037 84.6279C284.785 84.3525 284.41 84.2148 283.912 84.2148C283.525 84.2148 283.03 84.3584 282.427 84.6455C281.829 84.9326 281.39 85.0762 281.108 85.0762C280.833 85.0762 280.61 84.9971 280.44 84.8389C280.271 84.6748 280.186 84.4609 280.186 84.1973C280.186 83.7227 280.531 83.3477 281.223 83.0723C281.92 82.791 282.866 82.6504 284.062 82.6504C285.31 82.6504 286.203 82.8906 286.742 83.3711C287.281 83.8516 287.551 84.666 287.551 85.8145V89.0752ZM285.424 87.3789C285.131 87.3145 284.861 87.2676 284.615 87.2383C284.369 87.2031 284.141 87.1855 283.93 87.1855C283.285 87.1855 282.778 87.2939 282.409 87.5107C282.046 87.7275 281.864 88.0264 281.864 88.4072C281.864 88.7471 281.981 89.0078 282.216 89.1895C282.45 89.3652 282.787 89.4531 283.227 89.4531C283.631 89.4531 284.012 89.3945 284.369 89.2773C284.727 89.1602 285.078 88.9785 285.424 88.7324V87.3789ZM298.361 89.0752H298.502C298.818 89.0752 299.059 89.1602 299.223 89.3301C299.393 89.4941 299.478 89.7314 299.478 90.042C299.478 90.3818 299.39 90.6279 299.214 90.7803C299.044 90.9268 298.76 91 298.361 91H297.535C297.242 91 297.022 90.9443 296.876 90.833C296.735 90.7217 296.618 90.5195 296.524 90.2266C296.038 90.5488 295.522 90.7949 294.978 90.9648C294.433 91.1348 293.882 91.2197 293.325 91.2197C292.382 91.2197 291.641 90.9854 291.102 90.5166C290.562 90.0479 290.293 89.4062 290.293 88.5918C290.293 87.7129 290.642 87.0303 291.339 86.5439C292.036 86.0576 293.015 85.8145 294.274 85.8145C294.556 85.8145 294.854 85.8291 295.171 85.8584C295.487 85.8877 295.842 85.9346 296.234 85.999V85.832C296.234 85.3047 296.105 84.9033 295.848 84.6279C295.596 84.3525 295.221 84.2148 294.723 84.2148C294.336 84.2148 293.841 84.3584 293.237 84.6455C292.64 84.9326 292.2 85.0762 291.919 85.0762C291.644 85.0762 291.421 84.9971 291.251 84.8389C291.081 84.6748 290.996 84.4609 290.996 84.1973C290.996 83.7227 291.342 83.3477 292.033 83.0723C292.73 82.791 293.677 82.6504 294.872 82.6504C296.12 82.6504 297.014 82.8906 297.553 83.3711C298.092 83.8516 298.361 84.666 298.361 85.8145V89.0752ZM296.234 87.3789C295.941 87.3145 295.672 87.2676 295.426 87.2383C295.18 87.2031 294.951 87.1855 294.74 87.1855C294.096 87.1855 293.589 87.2939 293.22 87.5107C292.856 87.7275 292.675 88.0264 292.675 88.4072C292.675 88.7471 292.792 89.0078 293.026 89.1895C293.261 89.3652 293.598 89.4531 294.037 89.4531C294.441 89.4531 294.822 89.3945 295.18 89.2773C295.537 89.1602 295.889 88.9785 296.234 88.7324V87.3789ZM309.172 89.0752H309.312C309.629 89.0752 309.869 89.1602 310.033 89.3301C310.203 89.4941 310.288 89.7314 310.288 90.042C310.288 90.3818 310.2 90.6279 310.024 90.7803C309.854 90.9268 309.57 91 309.172 91H308.346C308.053 91 307.833 90.9443 307.687 90.833C307.546 90.7217 307.429 90.5195 307.335 90.2266C306.849 90.5488 306.333 90.7949 305.788 90.9648C305.243 91.1348 304.692 91.2197 304.136 91.2197C303.192 91.2197 302.451 90.9854 301.912 90.5166C301.373 90.0479 301.104 89.4062 301.104 88.5918C301.104 87.7129 301.452 87.0303 302.149 86.5439C302.847 86.0576 303.825 85.8145 305.085 85.8145C305.366 85.8145 305.665 85.8291 305.981 85.8584C306.298 85.8877 306.652 85.9346 307.045 85.999V85.832C307.045 85.3047 306.916 84.9033 306.658 84.6279C306.406 84.3525 306.031 84.2148 305.533 84.2148C305.146 84.2148 304.651 84.3584 304.048 84.6455C303.45 84.9326 303.011 85.0762 302.729 85.0762C302.454 85.0762 302.231 84.9971 302.062 84.8389C301.892 84.6748 301.807 84.4609 301.807 84.1973C301.807 83.7227 302.152 83.3477 302.844 83.0723C303.541 82.791 304.487 82.6504 305.683 82.6504C306.931 82.6504 307.824 82.8906 308.363 83.3711C308.902 83.8516 309.172 84.666 309.172 85.8145V89.0752ZM307.045 87.3789C306.752 87.3145 306.482 87.2676 306.236 87.2383C305.99 87.2031 305.762 87.1855 305.551 87.1855C304.906 87.1855 304.399 87.2939 304.03 87.5107C303.667 87.7275 303.485 88.0264 303.485 88.4072C303.485 88.7471 303.603 89.0078 303.837 89.1895C304.071 89.3652 304.408 89.4531 304.848 89.4531C305.252 89.4531 305.633 89.3945 305.99 89.2773C306.348 89.1602 306.699 88.9785 307.045 88.7324V87.3789Z" fill="white"/>
</svg>
