<svg width="343" height="90" viewBox="0 0 343 90" fill="none" xmlns="http://www.w3.org/2000/svg">
<path d="M6.5 6H12.5V0H30.5V12H18.5V24H12.5V66H18.5V78H30.5V90H12.5V84H6.5V72H0.5V18H6.5V6ZM48.5 36H60.5V0H72.5V90H60.5V48H48.5V90H36.5V0H48.5V36ZM84.5 6V0H108.5V6H114.5V90H102.5V54H90.5V90H78.5V6H84.5ZM90.5 12V42H102.5V12H90.5ZM120.5 0H156.5V12H144.5V90H132.5V12H120.5V0ZM198.5 0H210.5V84H204.5V90H186.5V78H198.5V0ZM228.5 0V78H240.5V0H252.5V84H246.5V90H222.5V84H216.5V0H228.5ZM270.5 6H276.5V18H282.5V6H288.5V0H300.5V90H288.5V30H282.5V42H276.5V30H270.5V90H258.5V0H270.5V6ZM306.5 0H336.5V6H342.5V48H336.5V54H318.5V90H306.5V0ZM318.5 12V42H330.5V12H318.5Z" fill="black"/>
</svg>
