<?xml version="1.0" encoding="UTF-8"?>
<svg width="1200pt" height="1200pt" version="1.1" viewBox="0 0 1200 1200" xmlns="http://www.w3.org/2000/svg">
 <path d="m600 30c-314.4 0-570 255.6-570 570s255.6 570 570 570 570-255.6 570-570-255.6-570-570-570zm0 307.2c98.398 0 178.8 80.398 178.8 178.8 0 98.398-80.402 178.8-178.8 178.8s-178.8-80.398-178.8-178.8c0-98.398 80.402-178.8 178.8-178.8zm-288 628.8c42-118.8 154.8-204 288-204s246 85.199 288 204c-79.199 62.398-180 100.8-288 100.8-109.2-1.1992-208.8-38.402-288-100.8z" fill="#333"/>
</svg>
